<svg xmlns="http://www.w3.org/2000/svg" xmlns:xlink="http://www.w3.org/1999/xlink" width="1920" zoomAndPan="magnify" viewBox="0 0 1440 809.999993" height="1080" preserveAspectRatio="xMidYMid meet" version="1.0"><defs><filter x="0%" y="0%" width="100%" height="100%" id="ebed7983a5"><feColorMatrix values="0 0 0 0 1 0 0 0 0 1 0 0 0 0 1 0 0 0 1 0" color-interpolation-filters="sRGB"/></filter><mask id="15f58453b1"><g filter="url(#ebed7983a5)"><rect x="-144" width="1728" fill="#000000" y="-80.999999" height="971.999992" fill-opacity="0.698"/></g></mask><clipPath id="cffb41c16c"><path d="M 0.914062 0 L 1240 0 L 1240 810 L 0.914062 810 Z M 0.914062 0 " clip-rule="nonzero"/></clipPath><clipPath id="b015a639f6"><rect x="0" width="1240" y="0" height="810"/></clipPath></defs><g mask="url(#15f58453b1)"><g transform="matrix(1, 0, 0, 1, 200, 0.000000000000039746)"><g clip-path="url(#b015a639f6)"><g clip-path="url(#cffb41c16c)"><path fill="#7eace2" d="M 1249.664062 1007.027344 L 0.914062 1007.027344 C 20.59375 726.074219 228.121094 786.917969 353.355469 706.386719 C 480.375 625.859375 412.390625 432.59375 573.40625 307.328125 C 732.628906 180.269531 847.128906 214.273438 940.160156 180.269531 C 1033.1875 146.269531 1051.078125 19.214844 1111.90625 -45.207031 C 1163.789062 -98.894531 1249.664062 -98.894531 1249.664062 -98.894531 Z M 1249.664062 1007.027344 " fill-opacity="1" fill-rule="nonzero"/></g></g></g></g></svg>