<svg xmlns="http://www.w3.org/2000/svg" xmlns:xlink="http://www.w3.org/1999/xlink" width="1920" zoomAndPan="magnify" viewBox="0 0 1440 809.999993" height="1080" preserveAspectRatio="xMidYMid meet" version="1.0"><defs><filter x="0%" y="0%" width="100%" height="100%" id="19906b9438"><feColorMatrix values="0 0 0 0 1 0 0 0 0 1 0 0 0 0 1 0 0 0 1 0" color-interpolation-filters="sRGB"/></filter><mask id="8ba4b3dc5a"><g filter="url(#19906b9438)"><rect x="-144" width="1728" fill="#000000" y="-80.999999" height="971.999992" fill-opacity="0.698"/></g></mask><clipPath id="3aa7ba2916"><path d="M 0 2 L 1439.824219 2 L 1439.824219 731 L 0 731 Z M 0 2 " clip-rule="nonzero"/></clipPath><clipPath id="e310c665a5"><rect x="0" width="1440" y="0" height="731"/></clipPath></defs><g mask="url(#8ba4b3dc5a)"><g transform="matrix(1, 0, 0, 1, 0, 79)"><g clip-path="url(#e310c665a5)"><g clip-path="url(#3aa7ba2916)"><path fill="#7eace2" d="M 1440.027344 730.757812 L 1440.027344 2.53125 C 1387.398438 20.308594 1342.171875 58.21875 1311.414062 104.75 C 1289.019531 138.621094 1273.304688 177.398438 1245.046875 206.535156 C 1187.128906 266.285156 1092.558594 270.351562 1010.621094 255.769531 C 928.710938 241.1875 847.558594 211.964844 764.695312 219.519531 C 628.558594 231.953125 522.308594 338.757812 397.675781 394.9375 C 368.023438 408.300781 336.070312 418.988281 303.597656 416.898438 C 241.964844 412.890625 193.226562 365.019531 136.589844 340.386719 C -44.539062 261.609375 -264.382812 430.027344 -445.015625 350.144531 C -504.382812 323.886719 -552.28125 272.734375 -615.394531 257.628906 C -659.863281 246.96875 -706.625 255.683594 -752.140625 251.179688 C -756.175781 250.773438 -760.242188 250.164062 -764.308594 249.4375 L -764.308594 730.699219 L 1440.027344 730.699219 Z M 1440.027344 730.757812 " fill-opacity="1" fill-rule="nonzero"/></g></g></g></g></svg>