<svg xmlns="http://www.w3.org/2000/svg" xmlns:xlink="http://www.w3.org/1999/xlink" width="1080" zoomAndPan="magnify" viewBox="0 0 810 809.999993" height="1080" preserveAspectRatio="xMidYMid meet" version="1.0"><defs><filter x="0%" y="0%" width="100%" height="100%" id="b948eb126c"><feColorMatrix values="0 0 0 0 1 0 0 0 0 1 0 0 0 0 1 0 0 0 1 0" color-interpolation-filters="sRGB"/></filter><mask id="c2df4fec17"><g filter="url(#b948eb126c)"><rect x="-81" width="972" fill="#000000" y="-80.999999" height="971.999992" fill-opacity="0.698"/></g></mask><clipPath id="78054976e7"><path d="M 1.054688 0.160156 L 580.804688 0.160156 L 580.804688 513.773438 L 1.054688 513.773438 Z M 1.054688 0.160156 " clip-rule="nonzero"/></clipPath><clipPath id="437527319a"><rect x="0" width="581" y="0" height="514"/></clipPath></defs><g mask="url(#c2df4fec17)"><g transform="matrix(1, 0, 0, 1, 229, 296)"><g clip-path="url(#437527319a)"><g clip-path="url(#78054976e7)"><path fill="#5f53cf" d="M 580.804688 513.519531 L 1.054688 513.519531 C 10.191406 383.132812 106.539062 411.371094 164.679688 373.996094 C 223.652344 336.625 192.089844 246.929688 266.839844 188.796875 C 340.765625 129.832031 393.921875 145.609375 437.113281 129.832031 C 480.300781 114.050781 488.609375 55.085938 516.847656 25.1875 C 540.933594 0.273438 580.804688 0.273438 580.804688 0.273438 Z M 580.804688 513.519531 " fill-opacity="1" fill-rule="nonzero"/></g></g></g></g></svg>