<svg xmlns="http://www.w3.org/2000/svg" xmlns:xlink="http://www.w3.org/1999/xlink" width="1920" zoomAndPan="magnify" viewBox="0 0 1440 809.999993" height="1080" preserveAspectRatio="xMidYMid meet" version="1.0"><defs><filter x="0%" y="0%" width="100%" height="100%" id="256216679b"><feColorMatrix values="0 0 0 0 1 0 0 0 0 1 0 0 0 0 1 0 0 0 1 0" color-interpolation-filters="sRGB"/></filter><mask id="a1269c4aec"><g filter="url(#256216679b)"><rect x="-144" width="1728" fill="#000000" y="-80.999999" height="971.999992" fill-opacity="0.8"/></g></mask><clipPath id="eae561e5d2"><path d="M 0 1 L 1440 1 L 1440 624.640625 L 0 624.640625 Z M 0 1 " clip-rule="nonzero"/></clipPath><clipPath id="39a18f3f41"><path d="M 0 75 L 119 75 L 119 389 L 0 389 Z M 0 75 " clip-rule="nonzero"/></clipPath><clipPath id="29b8955d23"><rect x="0" width="1440" y="0" height="625"/></clipPath></defs><g mask="url(#a1269c4aec)"><g transform="matrix(1, 0, 0, 1, 0, 92)"><g clip-path="url(#29b8955d23)"><g clip-path="url(#eae561e5d2)"><path fill="#5f53cf" d="M 902.136719 566.65625 C 898.988281 568.054688 894.863281 568.941406 898.734375 573.78125 C 899.066406 574.1875 898.65625 575.316406 898.402344 576.046875 C 896.882812 580.441406 895.164062 584.761719 893.84375 589.207031 C 893.347656 590.867188 893.765625 592.796875 893.765625 595.835938 C 890.070312 592.832031 887.601562 589.644531 887.871094 586.675781 C 888.203125 583.015625 887.445312 580.695312 884.714844 578.253906 C 883.875 579.035156 882.710938 579.605469 882.453125 580.449219 C 880.8125 585.765625 876.839844 589.320312 873.203125 593.148438 C 872.488281 593.90625 871.597656 594.632812 871.191406 595.550781 C 867.796875 603.160156 860.628906 605.503906 853.675781 607.953125 C 848.855469 609.648438 848.761719 609.355469 846 604.347656 C 845.753906 603.898438 845.351562 603.53125 844.765625 602.820312 C 843.246094 602.949219 841.5 603.097656 839.472656 603.265625 C 839.164062 601.847656 838.648438 600.582031 838.65625 599.324219 C 838.695312 595.117188 838.878906 590.910156 839.101562 586.707031 C 839.15625 585.65625 839.304688 584.476562 839.835938 583.617188 C 843.246094 578.148438 843.03125 571.988281 843.59375 565.921875 C 843.933594 562.234375 844.71875 558.53125 845.753906 554.964844 C 849.695312 541.445312 853.769531 527.960938 857.898438 514.503906 C 859.378906 509.671875 861.367188 505.003906 862.78125 500.15625 C 865.011719 492.515625 866.761719 484.730469 869.0625 477.105469 C 872.820312 464.664062 876.667969 452.246094 880.8125 439.929688 C 889.554688 413.96875 898.496094 388.085938 907.390625 362.179688 C 911.882812 349.105469 916.441406 336.058594 920.953125 322.992188 C 921.433594 321.601562 921.789062 320.175781 921.070312 318.359375 C 920.269531 320.214844 919.378906 322.035156 918.671875 323.917969 C 912.875 339.34375 907.089844 354.769531 901.359375 370.222656 C 893.210938 392.160156 884.953125 414.0625 877.039062 436.082031 C 872.910156 447.554688 870.085938 459.53125 865.449219 470.777344 C 860.960938 481.667969 858.296875 493.027344 854.773438 504.160156 C 851.570312 514.28125 848.644531 524.480469 845.613281 534.652344 C 845.460938 535.164062 845.507812 535.75 845.273438 536.210938 C 838.738281 549.507812 837.3125 564.101562 834.582031 578.363281 C 834.550781 578.527344 834.195312 578.617188 833.664062 578.949219 C 831.125 577.003906 831.101562 574.132812 830.847656 571.257812 C 830.570312 568.128906 829.820312 565.042969 829.542969 561.910156 C 829.3125 559.292969 829.195312 556.617188 829.496094 554.015625 C 830.683594 543.773438 831.988281 533.550781 833.410156 523.339844 C 833.730469 520.992188 834.882812 518.777344 835.296875 516.433594 C 836.214844 511.222656 839.996094 507.1875 840.636719 501.714844 C 841.269531 496.257812 843.261719 490.933594 844.882812 485.625 C 846.425781 480.546875 848.097656 475.484375 849.980469 470.523438 C 858.207031 448.921875 863.738281 426.386719 872.988281 405.109375 C 877.53125 394.652344 880.71875 383.601562 884.5625 372.835938 C 888.496094 361.816406 892.5 350.820312 896.433594 339.808594 C 896.765625 338.867188 896.804688 337.824219 896.992188 336.734375 C 893.15625 335.085938 891.074219 337.539062 890.871094 339.984375 C 889.863281 351.992188 883.289062 362.03125 879.714844 373.109375 C 878.574219 376.640625 877.230469 380.113281 875.933594 383.601562 C 875.378906 385.09375 875.109375 387.246094 874.015625 387.878906 C 870.011719 390.179688 870.898438 395.371094 867.519531 398.035156 C 866.570312 398.78125 866.066406 401.167969 866.5 402.402344 C 867.59375 405.550781 866.492188 408.265625 865.449219 410.914062 C 861.082031 422.027344 857.957031 433.617188 852.148438 444.183594 C 850.136719 447.847656 849.085938 452.078125 847.828125 456.121094 C 845.296875 464.242188 843.074219 472.453125 840.4375 480.53125 C 839.046875 484.777344 836.996094 488.789062 835.351562 492.957031 C 834.386719 495.410156 833.417969 497.902344 832.835938 500.464844 C 829.96875 513.152344 826.648438 525.671875 820.0625 537.070312 C 819.148438 538.644531 818.804688 540.550781 818.195312 542.292969 C 816.964844 545.773438 816.480469 549.824219 814.367188 552.640625 C 806.164062 563.554688 802.285156 576.882812 794.191406 587.777344 C 792.484375 590.070312 790.285156 592 788.273438 594.0625 C 787.347656 595.003906 785.921875 595.671875 785.417969 596.785156 C 781.167969 606.285156 772.15625 608.089844 764.261719 610.675781 C 760.398438 608.753906 757.042969 607.328125 753.933594 605.488281 C 750.152344 603.253906 748.0625 599.253906 748.933594 595.335938 C 750.484375 588.359375 747.550781 583.109375 744.242188 577.699219 C 741.894531 576.628906 740.082031 577.4375 738.839844 579.507812 C 735.160156 585.601562 729.597656 590.402344 726.929688 597.253906 C 726.125 599.316406 724.035156 600.90625 722.4375 602.613281 C 721.179688 603.953125 719.273438 604.917969 718.527344 606.46875 C 717.398438 608.824219 716.480469 610.675781 713.394531 610.460938 C 712.746094 610.414062 711.914062 611.75 711.320312 612.566406 C 708.960938 615.792969 705.671875 617.152344 701.835938 617.769531 C 698.707031 618.277344 695.820312 618.246094 694.277344 615.058594 C 692.988281 612.398438 690.921875 613.089844 688.660156 613.269531 C 684.546875 607.0625 680.976562 600.683594 682.257812 592.710938 C 682.378906 591.945312 682.386719 591.019531 682.0625 590.339844 C 677.835938 581.328125 677.363281 571.332031 674.5625 561.957031 C 674.347656 561.238281 673.746094 560.644531 672.972656 559.449219 C 668.707031 562.96875 663.824219 565.035156 660.335938 569.707031 C 655.675781 575.949219 648.183594 577.691406 640.839844 579.113281 C 635.445312 576.574219 629.519531 574.527344 626.382812 569.101562 C 625.191406 567.050781 625.480469 563.847656 625.800781 561.261719 C 626.457031 555.953125 625.222656 551.285156 622.074219 547.101562 C 619.152344 543.210938 617.808594 539.113281 620.625 534.222656 C 618.347656 533.949219 616.828125 533.765625 615.148438 533.566406 C 614.453125 540.292969 612.136719 546.296875 607.070312 551.039062 C 606.53125 551.546875 605.996094 552.371094 605.972656 553.074219 C 605.796875 558.230469 601.105469 560.582031 599.054688 564.496094 C 596.855469 568.679688 595.644531 573.371094 593.4375 577.546875 C 592.410156 579.484375 590.109375 580.796875 588.273438 582.246094 C 586.847656 583.378906 584.503906 583.945312 583.839844 585.355469 C 579.988281 593.613281 571.824219 593.820312 565.484375 596.300781 C 561.09375 595.042969 562.4375 591.074219 560.351562 588.535156 C 558.816406 589.035156 557.160156 589.570312 555.207031 590.203125 C 553.300781 586.382812 553.816406 582.398438 554.613281 578.609375 C 557.335938 565.609375 560.246094 552.632812 563.246094 539.683594 C 566.554688 525.429688 570.058594 511.214844 573.4375 496.976562 C 573.964844 494.777344 575.097656 492.5 572.929688 489.785156 C 570.507812 491.855469 569.039062 494.070312 568.671875 496.992188 C 568.105469 501.390625 567.574219 505.796875 567.035156 510.207031 C 567.003906 510.46875 567.105469 510.816406 566.972656 510.984375 C 562.746094 516.246094 561.625 522.398438 561.726562 528.925781 C 561.734375 529.414062 561.503906 530.070312 561.148438 530.371094 C 556.15625 534.597656 556.71875 540.84375 555.246094 546.351562 C 553.832031 551.640625 552.304688 556.894531 550.445312 563.523438 C 549.867188 561.316406 549.445312 560.28125 549.382812 559.226562 C 549.335938 558.484375 550.246094 557.425781 549.96875 557.011719 C 545.777344 550.652344 548.8125 543.921875 549.558594 537.65625 C 551.71875 519.449219 554.25 501.230469 557.929688 483.28125 C 560.746094 469.550781 563.445312 455.722656 568.5625 442.457031 C 572.851562 431.320312 575.550781 419.574219 578.902344 408.089844 C 579.007812 407.71875 578.539062 407.1875 578.105469 406.191406 C 577.351562 407.046875 576.460938 407.628906 576.214844 408.398438 C 574.433594 413.980469 572.789062 419.605469 568.460938 423.902344 C 567.511719 431.34375 560.167969 436.003906 559.851562 443.714844 C 554.542969 450.035156 555.40625 458.800781 551.0625 465.644531 C 548.726562 469.335938 548.117188 474.105469 546.65625 478.355469 C 543.648438 487.136719 539.816406 495.542969 534.792969 503.351562 C 533.378906 505.550781 531.421875 507.441406 529.515625 509.28125 C 525.109375 513.523438 520.890625 518.054688 516.027344 521.703125 C 509.839844 526.34375 503.042969 529.921875 494.703125 527.816406 C 492.464844 527.253906 490.050781 527.382812 487.179688 527.152344 C 486.972656 523.578125 486.769531 520.222656 486.515625 515.792969 C 485.105469 517.136719 484.316406 517.945312 483.460938 518.664062 C 482.480469 519.488281 481.433594 520.238281 479.933594 521.386719 C 477.140625 515.855469 476.886719 510.460938 477.550781 504.949219 C 477.738281 503.390625 478.863281 501.746094 478.570312 500.351562 C 476.339844 489.785156 483.792969 480.617188 481.710938 469.050781 C 481.472656 468.777344 480.167969 467.34375 478.222656 465.183594 C 477.714844 470.738281 477.296875 475.300781 476.796875 480.734375 C 473.167969 474.1875 472.503906 462.414062 474.960938 451.035156 C 475.914062 452.6875 476.554688 453.5625 476.957031 454.53125 C 477.328125 455.445312 477.445312 456.460938 477.9375 458.5625 C 479.835938 456.4375 481.015625 455.128906 482.898438 453.035156 C 483.332031 456.777344 483.640625 459.417969 480.605469 461.640625 C 481.679688 462.113281 482.589844 462.511719 483.332031 462.84375 C 485.761719 462.066406 487.164062 454.511719 486.261719 447.285156 C 484.582031 447.503906 482.90625 447.71875 481.539062 447.894531 C 479.574219 446.636719 477.699219 445.425781 475.269531 443.875 C 477.265625 441.769531 479.542969 439.660156 481.425781 437.253906 C 482.242188 436.203125 482.914062 434.28125 482.503906 433.1875 C 481.433594 430.308594 479.457031 433.21875 477.148438 432.832031 C 477.226562 425.429688 479.164062 418.515625 483.214844 411.394531 C 485.019531 411.5 486.246094 411.917969 487.058594 412.742188 C 488.816406 414.535156 490.359375 416.535156 492.355469 418.886719 C 492.28125 419.226562 492.011719 420.238281 491.839844 421.273438 C 491.269531 424.835938 491.523438 428.789062 486.757812 430.078125 C 486.214844 430.222656 486.207031 432.324219 485.945312 433.550781 C 489.757812 434.160156 491.136719 432.238281 491.863281 429.46875 C 493.136719 424.597656 494.65625 419.78125 495.636719 414.851562 C 497.550781 405.257812 499.171875 395.613281 501.253906 385.511719 C 503.582031 380.167969 505.28125 375.253906 504.734375 369.882812 C 501.925781 374.945312 500.011719 380.191406 500.589844 386.4375 C 499.238281 389.246094 498.382812 391.746094 497.386719 394.183594 C 497.039062 395.039062 496.398438 396.414062 495.835938 396.445312 C 491.902344 396.652344 491.5 399.792969 490.453125 402.402344 C 491.445312 403.945312 492.410156 405.429688 493.421875 407.003906 C 488.238281 408.855469 487.3125 408.546875 486.980469 404.902344 C 486.792969 402.859375 486.949219 400.773438 486.949219 398.40625 C 486.054688 398.738281 485.367188 398.984375 484.671875 399.238281 C 483.894531 396.722656 483.113281 394.207031 482.210938 391.296875 C 487.164062 380.46875 488.785156 368.515625 489.511719 356.253906 C 488.933594 357.371094 488.292969 358.460938 487.796875 359.609375 C 481.132812 374.945312 474.6875 390.378906 467.761719 405.589844 C 463.710938 414.488281 458.519531 422.867188 454.542969 431.796875 C 450.878906 440.03125 447.539062 448.519531 445.183594 457.203125 C 441.945312 469.148438 436.3125 479.984375 431.257812 491.105469 C 428.511719 497.15625 425.488281 503.074219 422.554688 509.03125 C 419.769531 514.695312 414.371094 517.992188 410.1875 522.367188 C 407.273438 525.417969 403.507812 527.636719 400.460938 530.578125 C 393.632812 537.160156 385.167969 539.964844 376.132812 541.382812 C 374.226562 541.683594 370.996094 541.507812 370.339844 540.386719 C 367.914062 536.28125 361.535156 536.152344 360.871094 530.578125 C 351.351562 526.195312 354.152344 517.027344 352.671875 509.519531 C 352.523438 508.769531 352.136719 508.066406 351.558594 506.554688 C 350.433594 508.222656 349.253906 509.292969 348.914062 510.582031 C 346.976562 517.890625 343.511719 524.398438 339.007812 530.410156 C 338.058594 531.675781 337.300781 533.109375 336.605469 534.539062 C 333.464844 540.988281 331.113281 547.972656 327.078125 553.792969 C 323.175781 559.425781 318.421875 564.449219 315.210938 570.648438 C 314.039062 572.90625 312.203125 575.292969 310.042969 576.488281 C 301.972656 580.949219 296.679688 589.902344 286.21875 590.613281 C 279.320312 591.074219 279.058594 591.382812 275.988281 584.929688 C 275.65625 584.230469 275.199219 583.582031 274.785156 582.878906 C 273.1875 582.957031 271.675781 583.023438 270.191406 583.085938 C 268.535156 580.230469 269.507812 576.582031 266.320312 574.390625 C 265.171875 573.59375 265.054688 570.988281 264.863281 569.15625 C 264.3125 564.132812 263.726562 559.09375 263.605469 554.046875 C 263.457031 548.203125 264.144531 542.292969 260.640625 537.054688 C 258.96875 534.546875 261.835938 531.449219 259.605469 528.949219 C 257.078125 526.117188 259.628906 523.609375 260.195312 520.933594 C 260.726562 518.394531 260.949219 515.777344 261.15625 513.183594 C 261.242188 512.171875 260.910156 511.125 260.703125 509.59375 C 257.988281 510.34375 256.582031 511.789062 255.617188 514.140625 C 254.222656 517.566406 252.671875 520.964844 250.859375 524.179688 C 245.773438 533.226562 237.070312 538.628906 229.402344 545.054688 C 228.191406 546.074219 226.722656 546.800781 225.542969 547.851562 C 218.476562 554.140625 210.273438 557.058594 200.925781 556.578125 C 197.714844 554.65625 197.40625 549.523438 192.515625 549.78125 C 191.773438 549.816406 191.148438 547.085938 190.046875 546.113281 C 184.234375 540.980469 184.550781 533.996094 184.273438 527.269531 C 184.050781 521.695312 183.902344 516.238281 182.128906 510.785156 C 181.234375 508.027344 182.367188 504.625 182.644531 500.636719 C 179.207031 502.726562 174.761719 502.65625 173.8125 507.195312 C 172.5 513.460938 167.347656 517.042969 164.113281 521.957031 C 161.785156 525.5 159.023438 528.828125 154.722656 530.300781 C 154 530.546875 153.226562 531.027344 152.765625 531.628906 C 149.230469 536.234375 144.507812 538.457031 138.992188 540.265625 C 133.675781 542.007812 128.777344 542.585938 122.898438 540.828125 C 121.507812 543.550781 119.679688 546.183594 118.761719 549.109375 C 116.101562 557.558594 109.1875 562.148438 102.890625 567.320312 C 101.671875 568.324219 99.9375 568.792969 98.941406 569.945312 C 91.527344 578.527344 81.953125 580.015625 71.136719 578.78125 C 68.820312 575.617188 67.648438 570.847656 61.554688 571.449219 C 60.695312 561.125 59.761719 551.113281 59.09375 541.089844 C 58.761719 536.082031 59.355469 530.988281 58.753906 526.027344 C 58.226562 521.695312 58.476562 517.367188 56.214844 512.992188 C 54.144531 508.984375 54.425781 503.636719 56.453125 499.046875 C 58.011719 495.511719 57.957031 492.476562 56.375 488.6875 C 54.941406 485.230469 55.226562 480.902344 55.386719 476.980469 C 55.691406 469.542969 55.976562 462.050781 57.109375 454.710938 C 60.109375 435.285156 59.894531 415.582031 62.578125 396.152344 C 63.746094 387.738281 64.707031 379.296875 65.726562 370.871094 C 65.84375 369.898438 65.742188 368.894531 65.742188 366.332031 C 63.914062 368.753906 62.765625 369.835938 62.164062 371.164062 C 59.949219 375.992188 58.058594 380.988281 55.75 385.773438 C 54.402344 388.582031 52.402344 391.066406 50.859375 393.789062 C 49.695312 395.84375 48.730469 398.011719 47.773438 400.179688 C 45.628906 405.058594 43.898438 410.203125 37.8125 411.785156 C 37.085938 411.972656 36.199219 413.824219 36.371094 414.71875 C 36.910156 417.636719 32.335938 416.125 33.058594 418.753906 C 33.640625 420.847656 34.234375 422.730469 32.667969 424.75 C 31.402344 426.386719 30.515625 428.316406 29.371094 430.269531 C 28.089844 429.511719 26.8125 428.757812 25.082031 427.730469 C 23.878906 429.976562 22.796875 431.984375 21.578125 434.265625 C 18.402344 434.265625 15.042969 434.265625 11.304688 434.265625 C 9.78125 427.34375 9.929688 420.953125 13.386719 414.898438 C 15.722656 410.792969 17.644531 406.585938 18.378906 400.496094 C 16.457031 401.777344 15.421875 402.109375 15.007812 402.804688 C 12.289062 407.339844 9.667969 411.941406 7.121094 416.570312 C 6.636719 417.453125 6.582031 418.585938 6.402344 419.613281 C 5.664062 423.765625 5.679688 423.765625 1.867188 428.0625 C 0.578125 425.691406 0.863281 423.433594 1.613281 421.332031 C 4.351562 413.585938 7.175781 405.867188 10.089844 398.1875 C 11.496094 394.492188 13.015625 390.980469 12.644531 386.757812 C 12.429688 384.296875 13.238281 381.441406 14.414062 379.203125 C 23.160156 362.566406 27.289062 344.292969 33.253906 326.671875 C 35.808594 319.132812 37.351562 311.246094 39.910156 303.707031 C 43.230469 293.929688 47.410156 284.4375 50.675781 274.644531 C 57.242188 254.957031 64.292969 235.378906 69.554688 215.335938 C 74.925781 194.910156 83.972656 176.046875 91.597656 156.570312 C 98.472656 139.003906 105.691406 121.570312 112.359375 103.929688 C 114.210938 99.019531 114.558594 93.542969 115.699219 88.355469 C 116.1875 86.15625 116.070312 83.847656 119.425781 83.039062 C 121.078125 82.636719 122.074219 79.519531 123.453125 77.488281 C 129.078125 78 134.886719 79.195312 140.367188 81.617188 C 142.496094 82.558594 144.703125 83.695312 146.328125 85.300781 C 149.167969 88.085938 151.722656 91.195312 154.121094 94.375 C 155.363281 96.027344 156.914062 98.1875 156.785156 100.007812 C 156.257812 107.324219 159.832031 113.421875 162.125 119.859375 C 163.683594 124.226562 165.164062 128.363281 163.019531 133.15625 C 164.667969 134.265625 166.105469 135.238281 167.703125 136.320312 C 168.328125 135.785156 169.214844 135.390625 169.429688 134.773438 C 172.097656 126.980469 174.597656 119.125 177.285156 111.332031 C 182.144531 97.253906 187.082031 83.207031 192.050781 69.171875 C 192.652344 67.464844 193.703125 65.921875 195.214844 63.003906 C 195.933594 65.550781 196.820312 66.964844 196.535156 68.082031 C 196.023438 70.097656 194.605469 71.863281 193.957031 73.855469 C 193.464844 75.382812 193.570312 77.105469 193.402344 78.800781 C 194.441406 78.753906 194.890625 78.816406 194.921875 78.726562 C 197.800781 70.882812 203.710938 64.199219 203.769531 55.25 C 203.785156 53.511719 204.558594 51.574219 205.53125 50.09375 C 209.023438 44.761719 212.691406 39.519531 216.433594 34.359375 C 219.464844 30.167969 222.710938 26.132812 225.898438 21.980469 C 225.644531 24.210938 225.382812 26.515625 225.121094 28.871094 C 228.445312 30.269531 230.890625 30.011719 233.320312 26.75 C 234.925781 24.589844 237.863281 23.222656 240.449219 22.066406 C 241.675781 21.515625 244.476562 21.753906 244.878906 22.519531 C 246.953125 26.515625 249.847656 26.640625 253.613281 25.53125 C 255.957031 24.835938 257.722656 26.191406 258.644531 28.421875 C 259.546875 30.621094 260.300781 32.882812 261.195312 35.082031 C 261.746094 36.441406 262.40625 37.761719 263.0625 39.082031 C 263.503906 39.96875 264.621094 41.027344 264.40625 41.652344 C 262.382812 47.492188 266.984375 52.03125 266.574219 59.429688 C 269.851562 55.289062 271.859375 52.75 273.859375 50.21875 C 272.476562 58.15625 267.59375 64.484375 265.972656 72.398438 C 266.496094 71.785156 267.136719 71.238281 267.539062 70.550781 C 277.058594 54.246094 287.082031 38.269531 299.148438 23.683594 C 299.8125 22.890625 300.792969 22.359375 302.089844 22.070312 C 300.492188 25.476562 298.5625 28.601562 296.347656 31.519531 C 294.542969 33.886719 297.042969 34.351562 298.015625 35.878906 C 296.179688 38.324219 294.078125 40.742188 292.40625 43.417969 C 281.402344 61.019531 272.515625 79.6875 264.847656 98.953125 C 264.367188 100.148438 264.296875 101.527344 264.214844 102.839844 C 263.90625 107.828125 263.632812 112.820312 263.417969 117.8125 C 263.363281 119.140625 263.558594 120.46875 263.632812 121.800781 C 268.265625 114.855469 271.8125 107.796875 274.777344 100.496094 C 284.457031 76.65625 293.324219 52.449219 307.605469 30.769531 C 308.042969 30.105469 308.601562 29.410156 308.707031 28.671875 C 309.171875 25.621094 310.160156 23.46875 313.613281 22.382812 C 315.675781 21.734375 316.03125 19.0625 314.417969 16.941406 C 316.492188 16.832031 318.699219 16.222656 320.628906 16.714844 C 325.359375 17.929688 329.980469 19.59375 334.609375 21.183594 C 337.933594 22.328125 340.472656 24.371094 342.332031 27.527344 C 348.804688 38.503906 350.980469 50.386719 350.070312 62.910156 C 349.539062 70.203125 348.664062 77.480469 347.800781 86.195312 C 351.019531 81.085938 353.558594 77.066406 356.550781 72.789062 C 357.007812 72.527344 356.9375 72.472656 356.9375 72.472656 C 355.933594 75.414062 354.921875 78.355469 353.296875 83.132812 C 355.554688 81.300781 356.628906 80.761719 357.238281 79.890625 C 361.464844 73.792969 365.414062 67.496094 369.828125 61.539062 C 372.375 58.097656 374.707031 53.90625 380.738281 53.683594 C 374.574219 56.96875 372.152344 62.023438 370.539062 67.636719 C 370.183594 68.878906 370.300781 70.40625 369.605469 71.371094 C 362.3125 81.464844 359.382812 93.496094 354.714844 104.738281 C 352.5 110.085938 350.246094 115.429688 350.046875 121.492188 C 349.9375 124.84375 348.320312 128.046875 345.148438 130.238281 C 342.679688 131.941406 341.21875 134.519531 341.753906 137.777344 C 348.351562 139.121094 349.253906 138.851562 351.390625 133.277344 C 353.671875 127.328125 355.488281 121.191406 357.675781 115.203125 C 362.984375 100.734375 368.394531 86.296875 374.496094 71.546875 C 377.613281 70.167969 377.613281 70.167969 377.097656 67.386719 C 376.109375 68.808594 375.277344 70.003906 374.449219 71.199219 C 375.230469 66.246094 377.011719 62.21875 382.597656 60.90625 C 386.03125 60.101562 386.972656 56.914062 387.144531 52.632812 C 389.09375 54.902344 390.082031 56.042969 391.15625 57.285156 C 394.875 57 399.007812 54.871094 401.910156 59.339844 C 402.21875 59.816406 403.40625 60.027344 404.109375 59.902344 C 411.683594 58.613281 413.84375 64.570312 415.667969 69.503906 C 417.75 75.144531 418.320312 81.339844 419.570312 87.296875 C 419.761719 88.230469 420.09375 89.136719 420.71875 91.25 C 424.097656 86.90625 425.582031 82.761719 427.679688 78.996094 C 430.890625 73.214844 434.253906 67.519531 438.054688 61.539062 C 438.558594 61.292969 438.652344 61.367188 438.652344 61.367188 C 436.351562 65.8125 433.992188 70.226562 431.769531 74.710938 C 430.285156 77.699219 429 80.777344 428.8125 84.519531 C 429.839844 83.246094 430.972656 82.050781 431.875 80.691406 C 437.300781 72.574219 442.554688 64.339844 448.125 56.328125 C 449.90625 53.765625 452.476562 51.761719 454.898438 49.730469 C 453.835938 52.269531 452.492188 54.539062 451.3125 56.886719 C 450.75 57.996094 449.816406 59.839844 450.246094 60.375 C 451.667969 62.125 450.832031 63.050781 449.777344 64.386719 C 441.730469 74.582031 437.523438 86.644531 433.449219 98.726562 C 431.25 105.25 429.839844 112.046875 427.371094 118.453125 C 424.980469 124.664062 426.214844 132.207031 420.496094 137.230469 C 419.832031 137.808594 419.917969 139.226562 419.625 140.253906 C 418.675781 143.574219 417.625 146.859375 416.792969 150.203125 C 416.507812 151.34375 416.746094 152.625 416.746094 154.167969 C 418.019531 153.890625 419.230469 153.9375 419.402344 153.542969 C 421.800781 148.027344 424.089844 142.460938 426.335938 136.882812 C 432.777344 120.875 439.207031 104.871094 445.59375 88.851562 C 449.527344 78.980469 453.464844 69.117188 459.148438 60.050781 C 461.117188 56.914062 462.707031 53.511719 464.132812 50.09375 C 465.484375 46.84375 464.636719 45.601562 460.707031 43.996094 C 465.355469 41.464844 465.355469 41.464844 472.273438 42.089844 C 471.765625 43.148438 471.339844 44.003906 470.34375 44.847656 C 468.625 44.582031 467.035156 43.75 466.433594 44.207031 C 464.851562 45.417969 464.597656 47.160156 466.882812 48.996094 C 468.117188 47.816406 469.351562 46.636719 470.585938 45.457031 C 475.074219 45.457031 479.566406 45.457031 484.171875 45.457031 C 485.328125 46.984375 486.425781 48.433594 487.75 50.195312 C 488.976562 49.863281 490.175781 49.484375 491.402344 49.207031 C 495.765625 48.21875 496.570312 48.296875 498.539062 52.015625 C 500.496094 55.726562 502.574219 59.625 503.28125 63.675781 C 504.023438 67.867188 504.734375 71.902344 506.476562 75.824219 C 507.023438 77.058594 506.191406 78.871094 506.082031 80.429688 C 505.796875 84.351562 504.832031 88.410156 505.503906 92.160156 C 506.269531 96.414062 506.984375 100.417969 505.859375 104.6875 C 505.613281 105.628906 506.546875 106.878906 507.433594 109.402344 C 513.714844 96.097656 517.972656 83.472656 525.550781 72.449219 C 524.277344 75.96875 523.003906 79.488281 521.722656 83.007812 C 522.132812 83.199219 522.546875 83.402344 522.957031 83.59375 C 525.363281 79.652344 527.785156 75.722656 530.15625 71.757812 C 530.835938 70.621094 531.066406 69.109375 531.96875 68.253906 C 534.019531 66.300781 537.039062 65.050781 538.378906 62.765625 C 539.722656 60.488281 538.875 56.96875 540.09375 54.570312 C 542.238281 50.355469 545.238281 46.574219 548.332031 42.351562 C 548.789062 42.097656 548.71875 42.035156 548.71875 42.035156 C 550.839844 44.414062 551.996094 46.960938 549.722656 49.863281 C 537 66.082031 531.953125 85.871094 524.277344 104.445312 C 519.816406 115.234375 514.933594 125.863281 510.644531 136.71875 C 509.121094 140.578125 505.226562 144.429688 508.992188 149.253906 C 509.394531 149.769531 508.058594 151.550781 507.671875 152.796875 C 505.875 158.605469 504.125 164.441406 502.085938 171.191406 C 500.75 173.105469 499.695312 174.085938 497.613281 176.015625 C 498.207031 171.734375 498.589844 168.949219 498.96875 166.167969 C 496.292969 169.535156 494.125 173.097656 492.589844 176.910156 C 489.527344 184.519531 485.984375 192.082031 484.21875 200.007812 C 482.714844 206.761719 480.785156 213.253906 478.554688 219.757812 C 477.320312 223.363281 477.28125 227.367188 476.703125 231.195312 C 478.476562 230.769531 479.210938 230.046875 479.566406 229.164062 C 482.125 222.8125 484.441406 216.363281 487.148438 210.082031 C 491.410156 200.21875 496.0625 190.515625 500.25 180.625 C 501.460938 177.769531 501.667969 174.496094 502.339844 171.410156 C 507.210938 166.316406 509.6875 159.773438 512.324219 153.535156 C 524.5 124.65625 536.375 95.640625 548.261719 66.625 C 552.738281 55.695312 559.34375 46.082031 565.847656 36.347656 C 570.273438 29.71875 576 24.378906 581.09375 19.511719 C 585.335938 20.105469 589.09375 20.621094 594.601562 21.394531 C 594.878906 21.800781 596.207031 23.792969 597.550781 25.792969 C 600.328125 25.003906 602.246094 24.457031 604.390625 23.847656 C 607.441406 27.582031 610.550781 31.164062 613.367188 34.953125 C 614.792969 36.875 614.855469 39.179688 614.785156 41.71875 C 614.683594 45.199219 613.535156 49.269531 617.070312 52.085938 C 617.253906 52.230469 617.417969 52.5625 617.394531 52.792969 C 616.34375 64.609375 623.117188 76.71875 615.835938 88.378906 C 614.585938 90.386719 614.578125 93.441406 614.691406 95.980469 C 614.96875 102.308594 616.675781 108.582031 614.953125 114.980469 C 614.683594 115.984375 615.695312 117.335938 616.429688 119.433594 C 618.953125 116.324219 620.949219 113.855469 623.410156 111.136719 C 623.867188 110.890625 623.796875 110.835938 623.796875 110.835938 C 621.296875 115.992188 620.15625 121.6875 616.058594 126.261719 C 614.4375 128.070312 612.160156 131.425781 614.019531 135.53125 C 617.902344 132.667969 619.320312 128.339844 621.519531 124.796875 C 631.125 109.316406 640.277344 93.558594 649.835938 78.054688 C 651.425781 75.46875 654.21875 73.625 656.917969 71.207031 C 657.382812 70.984375 657.304688 70.945312 657.304688 70.945312 C 654.660156 75.800781 652.011719 80.644531 648.808594 86.503906 C 651.078125 86.023438 652.375 85.753906 653.71875 85.46875 C 653.71875 85.980469 653.925781 86.636719 653.6875 86.929688 C 646.59375 95.59375 641.21875 105.296875 636.042969 115.179688 C 633.117188 120.753906 629.152344 125.777344 625.726562 131.09375 C 623.355469 134.773438 622.894531 139.644531 618.671875 142.199219 C 618.132812 142.523438 617.917969 143.605469 617.808594 144.367188 C 617.175781 148.773438 616.628906 153.195312 615.851562 159.132812 C 617.925781 157.210938 619.113281 156.421875 619.878906 155.335938 C 621.398438 153.171875 622.746094 150.875 624.058594 148.574219 C 636.179688 127.34375 648.410156 106.175781 660.265625 84.796875 C 662.296875 81.140625 664.15625 77.644531 667.058594 74.527344 C 672.132812 69.070312 677.941406 65.628906 685.605469 65.1875 C 688.359375 69.464844 684.816406 72.003906 683.003906 75.199219 C 685.058594 76.277344 686.769531 76.117188 687.480469 73.992188 C 688.667969 70.46875 690.890625 68.746094 694.996094 68.894531 C 696.621094 71.300781 698.457031 73.855469 702.441406 72.035156 C 703.433594 71.578125 705.378906 72.582031 706.597656 73.351562 C 709.019531 74.890625 711.203125 76.804688 713.574219 78.445312 C 715.6875 79.914062 715.640625 81.867188 715.402344 84.105469 C 715.117188 86.804688 712.917969 89.492188 715.015625 92.507812 C 720.160156 92.160156 720.117188 85.925781 724.976562 84.449219 C 722.832031 88.488281 720.957031 92 719.089844 95.515625 C 725.523438 93.148438 728.140625 87.660156 731.6875 82.96875 C 735.285156 78.207031 739.257812 73.738281 743.070312 69.140625 C 743.484375 69.464844 743.910156 69.796875 744.328125 70.121094 C 743.679688 70.9375 743.0625 71.777344 742.390625 72.574219 C 739.304688 76.207031 736.292969 79.757812 734.320312 84.3125 C 732.667969 88.117188 729.375 91.179688 726.996094 94.707031 C 725.101562 97.523438 722.855469 100.210938 725.761719 104.054688 C 726.621094 105.179688 725.601562 108.011719 724.976562 109.902344 C 723.6875 113.769531 722.082031 117.527344 720.664062 121.183594 C 721.242188 121.625 721.433594 121.855469 721.675781 121.925781 C 721.914062 121.996094 722.308594 122.011719 722.445312 121.863281 C 722.992188 121.292969 723.5625 120.707031 723.957031 120.035156 C 729.9375 109.742188 735.886719 99.429688 740.96875 88.109375 C 739.503906 88.703125 738.039062 89.289062 736.648438 89.84375 C 736.664062 89.621094 736.527344 88.964844 736.757812 88.773438 C 738.585938 87.246094 740.382812 85.640625 742.390625 84.375 C 746.863281 81.558594 750.222656 78 750.984375 72.449219 C 754.664062 70.527344 758.089844 68.855469 762.242188 71.285156 C 763.328125 71.925781 765.136719 71.292969 766.609375 71.355469 C 767.773438 71.402344 769.140625 71.269531 770.050781 71.824219 C 775.703125 75.257812 776.390625 75.25 780.464844 70.699219 C 781.351562 69.710938 782.15625 68.636719 783.289062 67.804688 C 783.496094 68.253906 783.414062 68.5 783.328125 68.753906 C 782.539062 71.023438 779.585938 73.847656 783.210938 75.445312 C 786.265625 76.789062 787.941406 73.382812 788.675781 71.054688 C 790.386719 65.589844 793.660156 61.238281 797.199219 56.953125 C 798.472656 55.410156 800.316406 53.796875 798.558594 51.421875 C 801.503906 50.433594 804.453125 49.4375 808.925781 47.933594 C 805.523438 50.972656 803.195312 52.632812 801.40625 54.753906 C 799.382812 57.164062 797.808594 59.957031 796.113281 62.632812 C 794.554688 65.097656 793.117188 67.644531 791.574219 70.121094 C 789.949219 72.75 788.257812 75.34375 786.5 78.097656 C 788.21875 79.035156 789.300781 79.621094 790.324219 80.175781 C 790.433594 83.808594 785.664062 87.34375 790.78125 91.550781 C 792.300781 89.105469 793.875 87.035156 794.953125 84.746094 C 798.210938 77.796875 801.273438 70.761719 804.429688 63.769531 C 804.753906 63.058594 805.046875 62.242188 805.601562 61.738281 C 809.097656 58.574219 812.953125 55.742188 813.527344 49.847656 C 819.1875 52.71875 824.8125 50.402344 829.019531 54.292969 C 829.1875 54.453125 829.574219 54.609375 829.734375 54.523438 C 836.78125 50.996094 839.417969 57.640625 843.570312 60.628906 C 844.765625 61.492188 845.816406 63.066406 846.167969 64.507812 C 847.707031 70.828125 849.542969 77.171875 850.136719 83.609375 C 850.644531 89.042969 850.574219 94.699219 848.800781 100.117188 C 848.429688 101.242188 848.902344 102.640625 849.039062 104.730469 C 852.8125 101.265625 855.992188 98.34375 859.417969 95.726562 C 857.972656 98.0625 856.191406 100.015625 854.625 102.140625 C 853.390625 103.8125 852.402344 105.679688 854.773438 108.4375 C 857.921875 103.644531 860.867188 99.207031 863.691406 94.691406 C 863.839844 94.460938 862.890625 93.550781 862.449219 92.957031 C 864.773438 91.683594 867.078125 90.371094 869.425781 89.136719 C 874.703125 86.339844 876.414062 86.648438 880.914062 91.164062 C 883.890625 90.332031 886.90625 89.492188 889.929688 88.640625 C 891.050781 90.207031 891.921875 91.433594 893.078125 93.0625 C 897.355469 89.503906 901.109375 89.429688 904.667969 94.160156 C 905.972656 95.894531 908.632812 96.613281 911.21875 98.117188 C 912.816406 95.449219 914.234375 93.054688 915.664062 90.671875 C 914.75 97.046875 911.664062 102.878906 911.882812 109.824219 C 912.476562 109.183594 913.253906 108.636719 913.648438 107.886719 C 916.171875 102.996094 918.578125 98.046875 921.070312 93.140625 C 928.648438 78.207031 935.953125 63.128906 943.945312 48.417969 C 947.996094 40.964844 953.304688 34.203125 958.019531 27.113281 C 959.453125 24.949219 960.820312 22.734375 961.359375 19.703125 C 960.25 20.519531 958.96875 21.183594 958.050781 22.179688 C 949.671875 31.242188 943.660156 41.96875 937.335938 52.425781 C 932.519531 60.378906 928.46875 68.800781 924.042969 76.988281 C 922.859375 79.171875 921.542969 81.285156 919.3125 82.90625 C 920.429688 80.285156 921.371094 77.574219 922.691406 75.050781 C 931.078125 59.023438 939.441406 43.023438 950.1875 28.332031 C 958.273438 17.273438 968.691406 9.332031 980.464844 2.894531 C 982.695312 1.675781 985.410156 1.351562 988.535156 1.707031 C 987.515625 2.523438 986.582031 3.472656 985.480469 4.128906 C 976.90625 9.238281 969.625 15.828125 963.597656 23.722656 C 961.113281 26.972656 957.695312 29.898438 958.46875 34.914062 C 958.644531 36.046875 956.785156 37.476562 955.921875 38.804688 C 950.097656 47.695312 944.222656 56.554688 938.515625 65.511719 C 937.296875 67.425781 936.664062 69.71875 936.71875 72.503906 C 937.78125 71.253906 939.015625 70.105469 939.886719 68.730469 C 946.578125 58.164062 952.914062 47.339844 961.585938 38.210938 C 966.144531 33.410156 971.003906 28.902344 975.695312 24.226562 C 978.3125 21.617188 980.851562 18.914062 983.441406 16.285156 C 989.515625 10.117188 996.78125 5.820312 1004.8125 2.785156 C 1006.917969 1.992188 1009.195312 1.660156 1011.789062 1.011719 C 1010.050781 4.976562 1008.585938 8.34375 1007.113281 11.707031 C 1012.460938 9.980469 1014.78125 4.113281 1021.664062 4.625 C 1022.171875 4.976562 1023.367188 6.53125 1024.710938 6.660156 C 1033.945312 7.546875 1036.695312 15.351562 1041 21.515625 C 1041.144531 21.726562 1041.308594 22.035156 1041.269531 22.257812 C 1039.578125 32.066406 1047.300781 40.5625 1044.863281 50.796875 C 1043.824219 55.164062 1044.507812 60.109375 1042.917969 64.664062 C 1042.542969 65.757812 1043.035156 67.15625 1043.21875 69.8125 C 1047.179688 66.238281 1049.832031 62.65625 1053.390625 60.960938 C 1056.984375 59.238281 1061.476562 59.378906 1065.519531 58.714844 C 1065.046875 60.078125 1064.554688 61.515625 1063.742188 63.875 C 1067.554688 62.734375 1070.496094 61.855469 1073.628906 60.914062 C 1075.902344 61.316406 1076.613281 65.542969 1080.101562 63.875 C 1080.855469 63.515625 1082.40625 63.800781 1083.046875 64.386719 C 1087.554688 68.53125 1094.027344 71.355469 1093.464844 79.125 C 1093.433594 79.542969 1093.957031 79.992188 1094.488281 80.863281 C 1095.964844 79.835938 1097.421875 78.824219 1099.164062 78.09375 C 1098.476562 80.636719 1097.492188 82.914062 1096.511719 85.191406 C 1100.214844 82.808594 1103.152344 80.042969 1105.113281 76.417969 C 1106 74.773438 1104.882812 74.085938 1103.609375 73.523438 C 1106.671875 72.085938 1109.742188 70.652344 1112.804688 69.21875 C 1113.054688 69.535156 1113.292969 69.859375 1113.539062 70.175781 C 1112.789062 70.984375 1112.066406 71.816406 1111.292969 72.605469 C 1106.8125 77.195312 1102.707031 81.933594 1101.109375 88.503906 C 1100.515625 90.941406 1098.222656 92.925781 1097.097656 95.300781 C 1096.179688 97.246094 1095.570312 99.609375 1099.636719 99.683594 C 1100.128906 99.644531 1100.074219 99.578125 1100.074219 100.140625 C 1098.773438 102.65625 1097.230469 104.5 1096.25 106.597656 C 1095.761719 107.632812 1096.300781 109.136719 1096.425781 111.285156 C 1102.738281 105.273438 1105.761719 98.542969 1109.28125 91.726562 C 1108.167969 91.011719 1107.328125 90.46875 1106.519531 89.945312 C 1106.550781 89.96875 1106.617188 90 1106.617188 90 C 1111.988281 84.488281 1117.15625 78.753906 1122.835938 73.585938 C 1125.066406 71.554688 1128.4375 70.785156 1131.324219 69.425781 C 1135.28125 71.253906 1138.691406 74.332031 1143.375 72.3125 C 1144.214844 71.949219 1145.757812 73.027344 1146.90625 73.578125 C 1149.261719 74.6875 1151.574219 75.890625 1154.113281 77.15625 C 1163.234375 68.003906 1172.476562 59.222656 1187.230469 56.636719 C 1181.304688 60.734375 1176.28125 63.746094 1171.8125 67.425781 C 1167.0625 71.347656 1164.089844 76.78125 1160.886719 82.46875 C 1162.453125 83.695312 1163.835938 84.765625 1165.671875 86.203125 C 1170.386719 82.019531 1175.191406 78.269531 1179.382812 73.933594 C 1190.453125 62.480469 1190.453125 61.367188 1206.472656 57.171875 C 1205.832031 59.554688 1205.28125 61.609375 1204.703125 63.769531 C 1209.617188 66.6875 1211.964844 60.804688 1216.445312 61.214844 C 1218.074219 63.257812 1220.898438 64.222656 1223.621094 65.558594 C 1229.679688 68.546875 1235.003906 73.023438 1240.609375 76.878906 C 1239.917969 80.082031 1239.390625 82.523438 1238.804688 85.207031 C 1242.183594 86.15625 1243.851562 84.003906 1245.324219 82.453125 C 1249.832031 77.714844 1254.914062 76.6875 1261.074219 78.609375 C 1264.984375 79.828125 1269.1875 80.625 1273.125 81.117188 C 1278.523438 81.796875 1281.007812 84.707031 1283.152344 88.734375 C 1285.011719 92.230469 1286.828125 95.773438 1288.308594 99.4375 C 1289.589844 102.601562 1290.816406 105.90625 1291.285156 109.253906 C 1291.839844 113.207031 1291.855469 117.03125 1294.589844 120.484375 C 1295.667969 121.847656 1295.335938 124.550781 1295.207031 126.617188 C 1294.203125 141.789062 1291.578125 156.707031 1288.085938 171.484375 C 1287.722656 173.023438 1287.144531 174.566406 1287.128906 176.109375 C 1287.128906 176.703125 1288.429688 177.3125 1289.75 177.9375 C 1290.359375 177.96875 1290.304688 177.898438 1290.082031 178.386719 C 1288.492188 180.792969 1286.972656 182.621094 1285.824219 184.667969 C 1284.789062 186.503906 1282.691406 188.03125 1283.207031 191.34375 C 1284.820312 190.269531 1285.847656 189.589844 1287.035156 189.066406 C 1287.203125 189.210938 1287.535156 189.515625 1287.535156 189.515625 C 1286.835938 192.144531 1286.132812 194.785156 1284.914062 198.34375 C 1283.015625 203.992188 1278.609375 207.441406 1278.671875 212.820312 C 1282.398438 209.054688 1285.785156 205.148438 1286.851562 199.785156 C 1288.617188 198.296875 1290.589844 197 1292.121094 195.292969 C 1297.613281 189.175781 1302.953125 182.921875 1308.359375 176.726562 C 1309.410156 175.523438 1310.757812 174.503906 1311.523438 173.152344 C 1318.605469 160.488281 1330.582031 154.730469 1343.378906 149.839844 C 1344.328125 151.574219 1345.0625 152.910156 1346.019531 154.648438 C 1350.792969 153.019531 1355.355469 153.082031 1359.589844 156.089844 C 1360.609375 156.816406 1362.097656 157.246094 1363.339844 157.203125 C 1368.917969 156.984375 1371.648438 161.5 1375.269531 164.355469 C 1377.691406 166.261719 1374.898438 167.996094 1373.824219 170.226562 C 1378.183594 174.03125 1383.484375 177.398438 1384.90625 183.757812 C 1388.933594 185.648438 1387.652344 188.835938 1386.949219 191.929688 C 1386.394531 194.382812 1384.71875 196.777344 1386.570312 200.363281 C 1396.777344 181.972656 1406.058594 163.871094 1415.996094 146.152344 C 1416.613281 146.328125 1417.230469 146.503906 1417.839844 146.683594 C 1418.542969 149.570312 1419.246094 152.457031 1419.980469 155.488281 C 1425.25 155.070312 1425.046875 149.074219 1429.382812 147.800781 C 1431.84375 149.128906 1434.570312 150.59375 1437.632812 152.246094 C 1436.714844 154.277344 1435.957031 155.929688 1435.222656 157.59375 C 1434.367188 159.539062 1433.265625 161.429688 1432.753906 163.46875 C 1432.207031 165.691406 1431.082031 168.617188 1433.804688 169.902344 C 1435.171875 170.550781 1437.398438 169.378906 1439.96875 168.894531 C 1439.523438 170.644531 1439.414062 172.425781 1438.65625 173.871094 C 1433.328125 183.964844 1427.726562 193.921875 1422.480469 204.054688 C 1417.964844 212.773438 1413.875 221.71875 1409.449219 230.492188 C 1401.917969 245.417969 1394.277344 260.296875 1386.679688 275.183594 C 1386.078125 276.355469 1385.296875 277.453125 1384.796875 278.671875 C 1381.472656 286.75 1378.402344 294.9375 1374.84375 302.910156 C 1373.023438 306.984375 1370.160156 310.574219 1368.15625 314.578125 C 1365.554688 319.773438 1362.863281 325.011719 1361.078125 330.507812 C 1357.554688 341.351562 1354.652344 352.402344 1351.425781 363.34375 C 1350.300781 367.164062 1349.089844 370.960938 1347.738281 374.710938 C 1344.683594 383.210938 1341.519531 391.667969 1338.402344 400.148438 C 1333.726562 412.867188 1328.976562 425.554688 1324.402344 438.304688 C 1316.167969 461.285156 1308.304688 484.40625 1299.789062 507.289062 C 1292.851562 525.910156 1285.335938 544.285156 1275.039062 561.449219 C 1269.445312 570.769531 1264.535156 580.484375 1257.902344 589.167969 C 1254.570312 593.527344 1250.378906 596.652344 1245.371094 598.746094 C 1242.832031 599.808594 1240.511719 600.226562 1237.964844 598.152344 C 1236.523438 596.96875 1234.191406 596.894531 1231.4375 596.074219 C 1231.152344 594.324219 1230.359375 592.023438 1230.496094 589.785156 C 1231.191406 578.640625 1232.078125 567.503906 1233.011719 556.386719 C 1233.304688 552.949219 1233.800781 549.507812 1234.476562 546.136719 C 1238.382812 526.796875 1244.691406 508.230469 1252.308594 490.054688 C 1256.105469 480.996094 1259.214844 471.640625 1262.894531 462.519531 C 1269.066406 447.230469 1275.324219 431.984375 1281.765625 416.800781 C 1287.25 403.875 1292.929688 391.027344 1298.753906 378.246094 C 1300.675781 374.035156 1301.101562 370.578125 1296.199219 367.984375 C 1296.964844 366.078125 1297.644531 364.394531 1298.246094 362.898438 C 1303.910156 360.851562 1303.785156 360.8125 1304.796875 357.597656 C 1305.667969 354.808594 1306.972656 352.171875 1307.851562 349.390625 C 1308.304688 347.957031 1308.246094 346.359375 1308.136719 344.445312 C 1307.851562 344.058594 1307.9375 344.121094 1307.9375 344.121094 C 1308.855469 341.066406 1309.65625 337.972656 1310.722656 334.96875 C 1311.832031 331.828125 1312.226562 328.839844 1310.421875 327.105469 C 1312.355469 323.097656 1314.222656 319.996094 1315.382812 316.65625 C 1317.894531 309.394531 1320.164062 302.039062 1322.277344 294.644531 C 1323.066406 291.882812 1322.957031 288.875 1323.566406 286.042969 C 1324.570312 281.410156 1326.027344 276.878906 1326.894531 272.226562 C 1327.308594 269.972656 1327.679688 266.964844 1326.5625 265.328125 C 1324.046875 261.632812 1325.054688 258.375 1326.042969 254.730469 C 1326.644531 252.5 1326.445312 250.0625 1326.792969 247.75 C 1327.246094 244.714844 1327.878906 241.707031 1328.683594 237.335938 C 1327.09375 238.789062 1326.097656 239.382812 1325.542969 240.253906 C 1321.976562 245.863281 1318.46875 251.515625 1315.019531 257.203125 C 1307.011719 270.382812 1298.839844 283.472656 1291.148438 296.828125 C 1286.789062 304.402344 1283.453125 312.558594 1279.226562 320.207031 C 1276.304688 325.5 1272.460938 330.277344 1269.359375 335.476562 C 1267.191406 339.113281 1266.117188 343.472656 1263.632812 346.824219 C 1256.265625 356.738281 1252.886719 368.570312 1247.339844 379.34375 C 1243.359375 387.074219 1239.4375 394.863281 1235.953125 402.828125 C 1232.140625 411.546875 1228.867188 420.5 1225.34375 429.34375 C 1224.671875 431.027344 1223.976562 432.699219 1223.160156 434.3125 C 1218.5 443.519531 1213.691406 452.585938 1210.375 462.480469 C 1206.578125 473.792969 1201.347656 484.613281 1197.003906 495.75 C 1193.824219 503.914062 1191.125 512.273438 1188.109375 520.507812 C 1186.480469 524.945312 1185.214844 529.652344 1182.785156 533.625 C 1176.28125 544.269531 1169.257812 554.601562 1162.378906 565.011719 C 1160.765625 567.453125 1158.75 569.621094 1157.125 572.042969 C 1152.191406 579.40625 1145.765625 585.253906 1138.492188 590.117188 C 1135.945312 591.816406 1132.734375 592.515625 1129.554688 593.78125 C 1127.921875 591.414062 1126.617188 589.523438 1125.257812 587.5625 C 1123.992188 587.902344 1122.742188 588.234375 1121.207031 588.644531 C 1118.933594 585.308594 1119.433594 581.441406 1119.933594 577.945312 C 1121.742188 565.351562 1123.777344 552.789062 1126.128906 540.285156 C 1127.242188 534.398438 1129.253906 528.679688 1130.320312 522.707031 C 1125.242188 527.746094 1125.128906 534.855469 1122.566406 540.902344 C 1120.097656 546.730469 1115.847656 551.769531 1114.890625 558.40625 C 1110.484375 557.457031 1110.460938 553.152344 1110.96875 550.820312 C 1113.121094 541.011719 1113.414062 530.703125 1118.199219 521.550781 C 1118.445312 521.085938 1118.824219 520.683594 1119.289062 520.4375 C 1119.558594 524.003906 1116.648438 527.152344 1118.753906 532.4375 C 1120.539062 526.988281 1121.910156 523.085938 1123.058594 519.109375 C 1123.460938 517.714844 1122.960938 516.464844 1121.0625 516.609375 C 1119.664062 510.535156 1120.507812 504.789062 1122.382812 498.804688 C 1124.496094 492.078125 1125.3125 484.945312 1126.824219 477.304688 C 1125.375 478.347656 1124.117188 479.25 1122.273438 480.5625 C 1120.9375 475.933594 1125.25 472.558594 1124.695312 468.128906 C 1127.558594 468.800781 1130.003906 469.164062 1132.09375 467.765625 C 1130.851562 472.003906 1129.78125 475.65625 1128.714844 479.304688 C 1129.054688 479.421875 1129.386719 479.542969 1129.726562 479.660156 C 1131.585938 477.296875 1133.453125 474.9375 1135.722656 472.058594 C 1134.539062 470.5 1133.335938 468.902344 1132.589844 466.980469 C 1134.65625 465.800781 1137.070312 465.335938 1137.726562 464.007812 C 1139.671875 460.066406 1141.253906 455.867188 1142.339844 451.609375 C 1143.429688 447.347656 1143.019531 447.179688 1137.582031 445.710938 C 1139.347656 440.15625 1141.121094 434.605469 1142.886719 429.050781 C 1140.953125 430.097656 1140.195312 431.628906 1139.300781 433.078125 C 1137.09375 436.683594 1137.371094 442.039062 1131.824219 443.382812 C 1131.105469 443.558594 1130.78125 445.632812 1130.421875 446.871094 C 1130.058594 448.113281 1130.320312 449.855469 1129.546875 450.597656 C 1124.671875 455.28125 1124.820312 461.445312 1124.164062 467.414062 C 1122.09375 467.121094 1119.957031 467.621094 1119.90625 469.84375 C 1119.78125 475.160156 1117.050781 479.476562 1115.074219 484.050781 C 1109.8125 496.238281 1104.644531 508.484375 1098.734375 520.351562 C 1096.1875 525.46875 1091.90625 529.730469 1088.394531 534.367188 C 1086.003906 537.523438 1083.589844 540.664062 1081.195312 543.8125 C 1077.378906 548.835938 1074.199219 554.578125 1069.570312 558.683594 C 1065.273438 562.496094 1060.410156 566.851562 1053.191406 565.976562 C 1052.257812 563.902344 1051.300781 561.78125 1050.117188 559.15625 C 1048.542969 559.703125 1046.910156 560.28125 1045.25 560.859375 C 1044.980469 560.523438 1044.464844 560.175781 1044.410156 559.757812 C 1044.171875 557.945312 1043.453125 555.890625 1044.015625 554.324219 C 1045.976562 548.898438 1044.671875 543.027344 1046.699219 537.632812 C 1047.664062 535.070312 1047.203125 532.523438 1045.566406 530.070312 C 1044.15625 527.960938 1043.34375 525.453125 1042.25 523.09375 C 1036.039062 525.601562 1039.894531 531.480469 1037.511719 535.054688 C 1039.15625 536.4375 1042.386719 536.9375 1040.066406 540.433594 C 1038.167969 539.476562 1036.230469 538.496094 1033.953125 537.347656 C 1032.8125 539.335938 1031.507812 540.8125 1031.109375 542.492188 C 1030.222656 546.253906 1030.722656 550.472656 1026.886719 553.066406 C 1026.570312 553.273438 1026.515625 554.078125 1026.5625 554.578125 C 1027.058594 560.003906 1025.574219 564.371094 1020.722656 567.527344 C 1019.371094 568.410156 1018.777344 570.617188 1018.09375 572.320312 C 1016.023438 577.484375 1013.988281 582.667969 1012.128906 587.910156 C 1010.570312 592.316406 1008.285156 595.957031 1004.027344 598.289062 C 1002.769531 598.976562 1001.882812 600.535156 1001.09375 601.855469 C 997.082031 608.578125 989.738281 612.867188 980.464844 613.570312 C 979.453125 611.371094 978.375 609.03125 977.191406 606.46875 C 975.511719 607.078125 973.953125 607.652344 972.515625 608.167969 C 969.925781 605.589844 970.898438 602.890625 971.113281 600.320312 C 972.046875 589.484375 972.957031 578.640625 974.007812 567.8125 C 974.238281 565.453125 975.023438 563.152344 975.511719 560.816406 C 976.035156 558.3125 976.5 555.796875 976.453125 553.183594 C 972.515625 557.960938 972.285156 563.855469 970.964844 569.417969 C 969.703125 574.738281 968.089844 579.960938 966.570312 585.433594 C 959.847656 579.179688 959.847656 579.179688 959.09375 569.410156 C 955.898438 570.492188 954.816406 573.046875 953.9375 575.707031 C 953.453125 577.183594 953.683594 579.445312 952.71875 580.128906 C 948.507812 583.148438 948.445312 588.132812 946.339844 592.125 C 943.390625 597.6875 941.054688 603.738281 935.265625 607.28125 C 934.425781 607.796875 933.640625 608.761719 933.292969 609.6875 C 930.082031 618.207031 922.214844 620.554688 914.945312 623.710938 C 911.703125 625.113281 908.75 625.054688 906.527344 621.773438 C 905.070312 619.621094 903.226562 618.253906 900.671875 619.882812 C 896.914062 614.195312 896.050781 608.910156 898.542969 602.882812 C 902.675781 592.878906 901.597656 581.953125 903.410156 571.511719 C 903.609375 570.335938 902.761719 568.980469 902.59375 566.75 C 904.050781 562.621094 906.511719 559.371094 906.328125 556.292969 C 905.996094 550.867188 907.722656 546.539062 910.269531 542.132812 C 911.265625 540.410156 912.4375 538.347656 910.230469 536.457031 C 907 537.398438 905.664062 539.746094 904.921875 542.777344 C 904.296875 545.339844 903.417969 547.847656 902.445312 550.304688 C 900.347656 555.730469 898.273438 561.109375 902.136719 566.65625 Z M 957.441406 204.769531 C 958.226562 202.507812 960.363281 200.550781 958.242188 197.546875 C 957.449219 199.949219 956.652344 202.355469 955.15625 205.433594 C 954.5625 207.15625 953.96875 208.882812 953.375 210.605469 C 953.882812 210.75 954.394531 210.890625 954.902344 211.039062 C 955.511719 209.191406 956.121094 207.339844 957.441406 204.769531 Z M 362.167969 517.503906 C 365.492188 515.144531 365.253906 511.996094 363.71875 508.539062 C 362.945312 511.777344 362.175781 515.019531 360.832031 519.019531 C 359.859375 520.738281 359.722656 522.222656 363.078125 524.132812 C 362.199219 521.257812 361.71875 519.695312 362.167969 517.503906 Z M 971.550781 172.464844 C 975.640625 166.753906 975.726562 166.53125 975.664062 160.726562 C 972.769531 164.695312 970.964844 168.578125 969.894531 173.761719 C 968.582031 176.226562 967.277344 178.6875 965.964844 181.15625 C 969.609375 179.402344 970.742188 176.503906 971.550781 172.464844 Z M 640.746094 260.472656 C 647.667969 245.378906 654.976562 230.414062 656.980469 213.5625 C 653.191406 216.410156 650.953125 220.214844 649.558594 224.480469 C 646.851562 232.746094 645.476562 241.382812 641.726562 249.382812 C 640.121094 252.8125 640.4375 257.148438 639.066406 261.832031 C 636.226562 267.304688 634.210938 273.070312 633.695312 279.375 C 635.71875 273.238281 637.730469 267.101562 640.746094 260.472656 Z M 848.738281 131.300781 C 849.996094 129.84375 851.246094 128.386719 852.441406 126.863281 C 852.441406 126.863281 852.371094 126.8125 852.304688 127.890625 C 850.519531 131.964844 849.671875 136.101562 851.484375 142.144531 C 855.121094 135.214844 858.230469 129.726562 860.898438 124.039062 C 862.457031 120.722656 864.492188 116.988281 864.199219 113.621094 C 863.859375 109.734375 864.65625 107.007812 867 104.277344 C 867.664062 103.503906 868.226562 102.449219 868.367188 101.453125 C 868.753906 98.75 870.164062 97.46875 872.765625 96.550781 C 875.09375 95.734375 877.625 94.304688 877.480469 90.300781 C 875.289062 90.554688 872.648438 90.054688 871.523438 91.132812 C 867.796875 94.691406 863.113281 97.5625 861.792969 103.234375 C 861.339844 105.1875 859.808594 106.902344 858.730469 108.691406 C 854.363281 115.914062 849.480469 122.859375 846.261719 131.671875 C 844.472656 133.464844 842.929688 135.339844 843.777344 138.820312 C 846.601562 136.757812 847.566406 134.488281 848.738281 131.300781 Z M 1342.972656 220.699219 C 1341.921875 223.105469 1340.480469 225.421875 1339.90625 227.9375 C 1338.621094 233.570312 1337.664062 239.28125 1336.761719 244.984375 C 1334.058594 262.179688 1328.464844 278.757812 1326.011719 296.019531 C 1325.472656 299.824219 1323.753906 303.453125 1322.523438 307.308594 C 1323.796875 307.558594 1324.5625 307.710938 1324.988281 308.882812 C 1323.582031 311.738281 1322.0625 314.542969 1320.804688 317.457031 C 1319.753906 319.875 1317.972656 322.582031 1318.328125 324.882812 C 1319.101562 329.90625 1316.699219 333.558594 1314.648438 337.507812 C 1312.84375 340.980469 1311.222656 344.5 1311.300781 349.777344 C 1313.058594 348.097656 1314.285156 347.410156 1314.757812 346.382812 C 1317.84375 339.644531 1321.554688 333.046875 1323.496094 325.96875 C 1325.171875 319.882812 1325.589844 313.484375 1328.742188 307.773438 C 1329.476562 306.445312 1329.476562 304.601562 1327.59375 302.78125 C 1328.105469 301.570312 1328.449219 300.25 1329.152344 299.160156 C 1332.371094 294.191406 1334.902344 289.105469 1333.828125 282.855469 C 1333.636719 281.71875 1334.539062 280.375 1334.96875 279.140625 C 1336.1875 275.667969 1337.824219 272.28125 1338.589844 268.714844 C 1341.8125 253.730469 1344.800781 238.695312 1347.816406 223.664062 C 1348.339844 221.054688 1348.773438 218.375 1346.78125 215.496094 C 1347.878906 214.148438 1349.160156 212.8125 1347.136719 210.605469 C 1344.460938 213.222656 1341.066406 215.027344 1342.972656 220.699219 Z M 1164.035156 407.914062 C 1165.207031 404.671875 1166.375 401.421875 1167.5625 398.179688 C 1171.675781 386.953125 1179.375 377.453125 1182.921875 365.90625 C 1184.550781 360.597656 1187.515625 355.714844 1189.425781 350.472656 C 1193.785156 338.527344 1197.820312 326.457031 1202.097656 314.472656 C 1207.636719 298.929688 1213.4375 283.480469 1218.808594 267.882812 C 1221.398438 260.34375 1223.265625 252.554688 1225.488281 244.894531 C 1226.128906 242.679688 1226.175781 240.703125 1223.5 239.335938 C 1218.992188 242.714844 1217.242188 247.410156 1216.863281 252.789062 C 1218.082031 253.296875 1218.976562 253.667969 1220.273438 254.207031 C 1217.304688 260.035156 1214.585938 265.785156 1211.5 271.316406 C 1207.84375 277.859375 1206.785156 285.292969 1203.933594 292.089844 C 1198.078125 306.058594 1191.957031 319.929688 1186.464844 334.027344 C 1183.394531 341.914062 1181.355469 350.210938 1178.828125 358.3125 C 1176.242188 366.578125 1172.632812 374.449219 1170.015625 382.730469 C 1166.8125 392.855469 1162.445312 402.617188 1158.660156 412.566406 C 1158.164062 413.871094 1158.125 415.34375 1157.800781 417.132812 C 1159.269531 416.816406 1160.007812 416.664062 1160.527344 417.597656 C 1160.464844 417.851562 1160.464844 418.144531 1160.332031 418.371094 C 1157.222656 423.585938 1156.867188 430.539062 1150.566406 433.8125 C 1149.957031 434.128906 1149.492188 435.886719 1149.800781 436.644531 C 1151.628906 441.136719 1149.390625 444.917969 1147.949219 448.828125 C 1144.007812 459.496094 1139.863281 470.097656 1136.128906 480.832031 C 1134.71875 484.898438 1132.972656 489.066406 1133.191406 493.84375 C 1134.238281 493.425781 1135.003906 493.359375 1135.125 493.042969 C 1145.363281 466.648438 1155.570312 440.238281 1165.710938 413.800781 C 1166.90625 410.683594 1167.648438 407.394531 1168.605469 404.183594 C 1168.28125 404.03125 1167.957031 403.875 1167.632812 403.722656 C 1166.359375 405.558594 1165.101562 407.402344 1164.035156 407.914062 Z M 938.351562 88.742188 C 940.328125 84.675781 942.296875 80.609375 944.277344 76.539062 C 946.136719 72.71875 948.058594 68.921875 949.871094 65.082031 C 951.722656 61.152344 954.757812 57.734375 955.132812 53.050781 C 953.507812 54.015625 952.234375 55.203125 951.324219 56.613281 C 948.152344 61.523438 944.988281 66.445312 942.042969 71.492188 C 938.570312 77.460938 935.136719 83.457031 932.027344 89.613281 C 927.367188 98.859375 922.882812 108.195312 918.585938 117.621094 C 916.632812 121.902344 915.136719 126.417969 913.804688 130.941406 C 913.449219 132.152344 914.480469 133.765625 914.90625 135.300781 C 915.910156 134.8125 916.597656 134.714844 916.757812 134.367188 C 923.800781 119.542969 930.792969 104.679688 938.351562 88.742188 Z M 1237.765625 206.128906 C 1240.203125 201.167969 1240.316406 195.8125 1241.199219 189.34375 C 1234.707031 198.050781 1233.019531 202.300781 1231.976562 210.320312 C 1231.785156 211.769531 1230.511719 213.058594 1229.855469 214.480469 C 1227.957031 218.546875 1226.074219 222.613281 1224.277344 226.726562 C 1222.835938 230.015625 1223.746094 232.699219 1226.367188 235.136719 C 1230.582031 229.273438 1232.371094 226.210938 1232.71875 220.566406 C 1233.027344 215.550781 1234.933594 211.363281 1237.765625 206.128906 Z M 397.976562 214.742188 C 399.789062 209.785156 401.648438 204.847656 403.390625 199.871094 C 407.320312 188.65625 411.246094 177.445312 415.035156 166.183594 C 415.75 164.046875 415.835938 161.691406 416.207031 159.441406 C 414.410156 160.566406 413.523438 162 412.949219 163.5625 C 409.855469 172.003906 407.679688 180.910156 403.585938 188.828125 C 398.367188 198.914062 395.875 209.632812 393.316406 220.445312 C 393.015625 221.726562 393.082031 223.089844 392.984375 224.410156 C 393.414062 224.496094 393.847656 224.589844 394.28125 224.671875 C 395.367188 221.75 396.449219 218.824219 397.976562 214.742188 Z M 604.277344 175.660156 C 603.511719 179.550781 602.886719 183.472656 601.945312 187.3125 C 600.496094 193.234375 600.210938 195.496094 601.011719 198.875 C 601.398438 198.535156 602.007812 198.273438 602.132812 197.855469 C 605.117188 188.03125 608.105469 178.207031 610.910156 168.328125 C 611.160156 167.457031 610.164062 166.238281 609.113281 163.5625 C 607.132812 168.230469 605.820312 171.316406 604.277344 175.660156 Z M 333.480469 168.128906 C 334.625 167.71875 336.421875 167.636719 336.808594 166.855469 C 339.199219 162.023438 341.273438 157.039062 343.726562 151.507812 C 342.148438 150.527344 340.597656 149.578125 338.429688 148.234375 C 336.445312 155.226562 334.730469 161.261719 333.480469 168.128906 Z M 845.011719 152.261719 C 845.304688 150.558594 845.605469 148.851562 845.898438 147.136719 C 843.082031 146.453125 841.957031 147.785156 841.324219 149.652344 C 839.234375 155.890625 837.171875 162.140625 835.230469 168.421875 C 834.945312 169.347656 835.359375 170.484375 835.613281 173.316406 C 839.226562 165.527344 842.035156 159.460938 845.011719 152.261719 Z M 512.117188 346.574219 C 512.773438 344.019531 513.429688 341.46875 514.078125 338.90625 C 514.925781 335.546875 514.925781 335.546875 513.96875 332.121094 C 510.042969 340.363281 505.992188 356.601562 506.800781 363.5 C 508.785156 357.25 510.273438 352.535156 512.117188 346.574219 Z M 203.664062 81.703125 C 201 87.507812 197.558594 93.070312 197.613281 99.902344 C 198.710938 99.839844 199.535156 99.992188 199.667969 99.761719 C 203.0625 93.820312 204.621094 87.304688 205.40625 80.578125 C 204.960938 80.722656 204.511719 80.878906 203.664062 81.703125 Z M 332.277344 179.433594 C 331.628906 179.464844 330.582031 179.257812 330.394531 179.566406 C 326.839844 185.601562 325.027344 192.175781 323.882812 198.9375 C 324.394531 199.105469 324.902344 199.285156 325.410156 199.453125 C 327.703125 193.054688 329.996094 186.660156 332.277344 179.433594 Z M 488.207031 498.835938 C 487.582031 499 486.476562 499.046875 486.410156 499.339844 C 485.414062 503.597656 484.558594 507.890625 483.675781 512.101562 C 486.742188 513.421875 487.734375 511.757812 487.96875 509.84375 C 488.382812 506.453125 488.40625 503.011719 488.207031 498.835938 Z M 210.066406 70.476562 C 213.949219 66.578125 214.859375 61.601562 215.222656 56.414062 C 211.496094 60.402344 207.761719 64.378906 210.066406 70.476562 Z M 196.78125 521.851562 C 196.15625 520.160156 195.53125 518.460938 194.90625 516.773438 C 193.277344 520.609375 192.539062 524.15625 192.230469 527.746094 C 192.128906 528.871094 193.179688 530.109375 193.933594 531.8125 C 196.65625 528.78125 196.171875 525.753906 196.78125 521.851562 Z M 219.886719 40.039062 C 219.300781 42.167969 218.722656 44.289062 218.136719 46.421875 C 220.691406 44.550781 221.695312 42.167969 222.953125 39.921875 C 224.253906 37.589844 225.804688 35.398438 227.101562 33.378906 C 222.75 33.292969 222.75 33.292969 219.886719 40.039062 Z M 1287.375 157.617188 C 1287.34375 156.035156 1287.320312 154.453125 1287.289062 152.871094 C 1283.585938 164.179688 1283.585938 164.179688 1285.246094 168.484375 C 1285.976562 164.894531 1286.601562 161.808594 1287.375 157.617188 Z M 1148.691406 417.890625 C 1148.488281 416.632812 1148.296875 415.375 1148.082031 414.046875 C 1141.921875 414.90625 1144.964844 419.542969 1143.535156 422.34375 C 1148.171875 423.078125 1148.171875 423.078125 1148.691406 417.890625 Z M 575.492188 476.332031 C 576.394531 476.402344 578.066406 476.613281 578.089844 476.519531 C 578.707031 473.175781 581.308594 470.074219 579.332031 464.734375 C 578.46875 466.472656 578.035156 467.148438 577.78125 467.882812 C 576.925781 470.359375 576.132812 472.867188 575.492188 476.332031 Z M 247.449219 517.960938 C 251.730469 513.023438 252.347656 511.632812 252.933594 504.230469 C 250.582031 508.398438 247.109375 512.011719 247.449219 517.960938 Z M 65.179688 350.765625 C 65.179688 348.851562 65.179688 346.9375 65.179688 344.421875 C 60.75 351.605469 60.582031 352.417969 62.511719 358.113281 C 63.496094 355.605469 64.230469 353.738281 65.179688 350.765625 Z M 520.039062 315.210938 C 520.316406 313.570312 520.597656 311.925781 520.875 310.273438 C 517.757812 314.203125 516.4375 318.484375 517.316406 323.429688 C 518.164062 321.046875 519.015625 318.65625 520.039062 315.210938 Z M 850.289062 117.882812 C 850.953125 115.226562 851.625 112.574219 852.511719 109.054688 C 847.148438 112.78125 846.6875 114.238281 848.40625 121.070312 C 849.039062 120.003906 849.433594 119.371094 850.289062 117.882812 Z M 191.417969 481.804688 C 192.628906 477.921875 193.917969 474.058594 193.679688 468.46875 C 190.570312 473.449219 189.707031 477.429688 191.417969 481.804688 Z M 264.246094 516.789062 C 264.066406 518.410156 263.882812 520.035156 263.671875 521.910156 C 266.867188 521.527344 269.445312 521.15625 268.964844 517.921875 C 268.65625 515.816406 266.976562 514.957031 264.246094 516.789062 Z M 753.355469 556.476562 C 752.742188 559.464844 752.140625 562.457031 751.207031 567.042969 C 754.589844 562.796875 755.550781 559.488281 755.367188 555.789062 C 755.367188 555.753906 754.257812 555.761719 753.355469 556.476562 Z M 1163.589844 70.210938 C 1161.226562 72.859375 1157.347656 74.597656 1157.703125 80.769531 C 1161.027344 76.625 1164.605469 74.558594 1163.589844 70.210938 Z M 1236.507812 588.527344 C 1238.519531 584.984375 1238.519531 584.984375 1235.117188 581.605469 C 1235.324219 584.4375 1235.457031 586.28125 1236.507812 588.527344 Z M 747.4375 574.1875 C 747.882812 575.917969 748.339844 577.644531 748.894531 579.792969 C 750.914062 576.84375 750.914062 576.84375 750.777344 573.054688 C 749.765625 573.148438 748.769531 573.222656 747.4375 574.1875 Z M 162.125 141.367188 C 162.777344 142.792969 163.433594 144.222656 164.082031 145.65625 C 164.492188 145.539062 164.902344 145.425781 165.308594 145.308594 C 165.070312 142.539062 164.839844 139.777344 164.601562 137.003906 C 164.144531 136.980469 163.691406 136.953125 163.226562 136.929688 C 162.863281 138.023438 162.5 139.128906 162.125 141.367188 Z M 689.933594 585.222656 C 687.851562 587.378906 686.5 589.523438 689.910156 592.078125 C 691.832031 589.808594 692.261719 587.785156 689.933594 585.222656 Z M 1138.082031 494.625 C 1140.132812 491.375 1140.101562 491.359375 1140.273438 486.503906 C 1139.144531 489.894531 1138.421875 492.046875 1138.082031 494.625 Z M 1178.828125 324.375 C 1177.113281 325.992188 1177.113281 325.992188 1177.792969 329.851562 C 1178.378906 329.148438 1179.128906 328.632812 1179.265625 327.984375 C 1179.488281 327.003906 1179.289062 325.933594 1178.828125 324.375 Z M 185.703125 98.667969 C 184.785156 100.941406 183.867188 103.226562 182.945312 105.503906 C 187.097656 104.222656 186.265625 101.113281 185.703125 98.667969 Z M 275.070312 560.34375 C 274.929688 559.101562 274.785156 557.867188 274.519531 555.535156 C 272.335938 559.941406 272.335938 559.941406 272.894531 564.164062 C 273.671875 562.960938 274.195312 562.140625 275.070312 560.34375 Z M 1148.953125 410.476562 C 1150.125 410.675781 1151.304688 410.875 1152.476562 411.078125 C 1151.84375 409.023438 1150.75 407.25 1149.429688 407.0625 C 1147.285156 406.753906 1147.0625 408.328125 1148.953125 410.476562 Z M 190.007812 86.773438 C 188.355469 88.519531 187.296875 90.378906 188.734375 93.535156 C 190.980469 91.304688 192.605469 89.644531 190.007812 86.773438 Z M 1189.066406 294.445312 C 1188.839844 295.339844 1188.617188 296.226562 1187.976562 298.796875 C 1191.246094 295.59375 1192.128906 293.351562 1191.339844 290.363281 C 1190.707031 291.453125 1190.066406 292.546875 1189.066406 294.445312 Z M 1182.46875 315.40625 C 1182.304688 315.210938 1182.183594 314.933594 1181.972656 314.84375 C 1181.773438 314.75 1181.289062 314.804688 1181.273438 314.867188 C 1180.972656 316.433594 1180.714844 318.007812 1180.445312 319.582031 C 1180.957031 319.664062 1181.464844 319.742188 1181.964844 319.828125 C 1182.191406 318.5625 1182.40625 317.296875 1182.46875 315.40625 Z M 193.261719 113.207031 C 197.621094 113.242188 195.925781 110.851562 194.449219 108.574219 C 194.011719 109.855469 193.570312 111.136719 193.261719 113.207031 Z M 177.609375 122.890625 C 177.445312 123.347656 177.261719 123.800781 177.152344 124.273438 C 177.136719 124.339844 177.664062 124.621094 177.675781 124.597656 C 178.964844 123.007812 180.277344 121.410156 178.726562 118.976562 C 178.449219 120.035156 178.164062 121.101562 177.609375 122.890625 Z M 1130.613281 513.285156 C 1129.757812 513.925781 1128.90625 514.558594 1128.050781 515.199219 C 1128.546875 515.667969 1129.046875 516.140625 1129.539062 516.609375 C 1130.097656 515.667969 1130.652344 514.726562 1130.613281 513.285156 Z M 346.445312 495 C 346.042969 496.273438 345.648438 497.546875 345.25 498.820312 C 347.417969 497.871094 348.671875 496.660156 346.445312 495 Z M 1276.703125 191.011719 C 1277.453125 191.050781 1278.191406 191.089844 1278.941406 191.125 C 1278.917969 190.410156 1278.902344 189.691406 1278.878906 188.972656 C 1278.175781 189.4375 1277.476562 189.898438 1276.703125 191.011719 Z M 164.570312 167.890625 C 164.636719 166.964844 164.714844 166.03125 164.785156 165.105469 C 164.191406 165.367188 163.171875 165.527344 163.082031 165.914062 C 162.863281 166.824219 161.328125 168.53125 164.570312 167.890625 Z M 1114.433594 539.667969 C 1114.882812 540.085938 1115.328125 540.496094 1115.777344 540.910156 C 1116.277344 539.5 1116.777344 538.078125 1117.28125 536.667969 C 1116.902344 536.542969 1116.53125 536.421875 1116.152344 536.296875 C 1115.621094 537.136719 1115.097656 537.972656 1114.433594 539.667969 Z M 839.371094 520.910156 C 839.820312 519.921875 840.265625 518.933594 841.140625 516.996094 C 838.253906 518.183594 837.128906 519.011719 839.371094 520.910156 Z M 526.628906 281.582031 C 526.707031 281.828125 526.722656 282.121094 526.875 282.304688 C 527 282.453125 527.402344 282.597656 527.476562 282.53125 C 528.75 281.320312 529.707031 280.015625 528.574219 277.382812 C 527.679688 279.050781 527.191406 279.960938 526.628906 281.582031 Z M 1159.921875 374.234375 C 1161.660156 375.421875 1162.300781 374.28125 1162.476562 372.84375 C 1162.539062 372.351562 1161.761719 371.757812 1161.367188 371.210938 C 1160.804688 371.949219 1160.238281 372.683594 1159.921875 374.234375 Z M 623.210938 320.976562 C 623.394531 320.066406 623.875 318.546875 622.199219 319.316406 C 620.554688 320.074219 620.21875 321.773438 621.390625 323.847656 C 622.046875 322.882812 622.453125 322.296875 623.210938 320.976562 Z M 638.117188 487.492188 C 637.824219 487.136719 637.335938 486.429688 637.261719 486.464844 C 634.921875 487.738281 634.929688 487.753906 636.371094 490.917969 C 636.988281 489.917969 637.5 489.089844 638.117188 487.492188 Z M 173.757812 496.921875 C 176.890625 497.238281 176.179688 495.117188 175.632812 493.117188 C 175.023438 494.152344 174.414062 495.1875 173.757812 496.921875 Z M 575.050781 484.605469 C 575.730469 483.765625 576.402344 482.925781 577.082031 482.082031 C 576.695312 481.84375 576.308594 481.605469 575.921875 481.367188 C 575.429688 482.277344 574.941406 483.179688 575.050781 484.605469 Z M 907.921875 301.546875 C 910.988281 300.964844 910.46875 299.382812 908.765625 296.28125 C 907.976562 298.527344 907.5625 299.746094 907.921875 301.546875 Z M 1169.96875 349.578125 C 1170.59375 348.550781 1171.21875 347.523438 1171.851562 346.492188 C 1171.457031 346.304688 1171.066406 346.128906 1170.671875 345.941406 C 1170.300781 347.03125 1169.9375 348.125 1169.96875 349.578125 Z M 587.957031 435.484375 C 588.675781 434.753906 589.402344 434.019531 590.117188 433.285156 C 589.808594 433.039062 589.492188 432.792969 589.183594 432.546875 C 588.761719 433.355469 588.328125 434.167969 587.957031 435.484375 Z M 931.308594 80.113281 C 931.457031 80.785156 931.601562 81.464844 931.742188 82.136719 C 932.40625 81.378906 933.074219 80.625 933.738281 79.867188 C 933.261719 79.535156 932.796875 79.1875 932.296875 78.910156 C 932.234375 78.878906 931.949219 79.265625 931.308594 80.113281 Z M 53.019531 378.894531 C 50.628906 380.253906 50.628906 380.253906 51.390625 383.203125 C 52.125 381.773438 52.664062 380.722656 53.019531 378.894531 Z M 53.019531 378.894531 " fill-opacity="1" fill-rule="nonzero"/></g><g clip-path="url(#39a18f3f41)"><path fill="#5f53cf" d="M 80.21875 138.339844 C 83.90625 128.386719 87.585938 118.4375 91.273438 108.484375 C 91.367188 108.234375 91.480469 107.980469 91.652344 107.78125 C 93.8125 105.304688 97.328125 104.5 98.8125 100.925781 C 99.960938 98.15625 102.636719 96.042969 104.566406 93.582031 C 105.316406 92.625 106.332031 91.558594 106.441406 90.460938 C 106.996094 84.789062 110.878906 81.03125 114.085938 76.949219 C 114.835938 75.992188 116.804688 75.984375 118.128906 75.566406 C 118.421875 76.386719 118.65625 76.695312 118.578125 76.855469 C 117.203125 79.636719 113.453125 80.191406 112.960938 84.28125 C 112.542969 87.730469 109.707031 90.839844 108.160156 94.207031 C 106.71875 97.347656 105.570312 100.617188 104.304688 103.835938 C 101.003906 112.210938 97.816406 120.621094 94.375 128.933594 C 90.425781 138.472656 85.925781 147.792969 82.238281 157.433594 C 78.359375 167.589844 75.09375 177.992188 71.691406 188.324219 C 69.800781 194.066406 69.039062 200.25 63.488281 204.222656 C 62.347656 205.039062 61.460938 208.453125 62.085938 209.117188 C 65.054688 212.25 63.105469 215.210938 62.246094 218.035156 C 58.097656 231.757812 53.761719 245.425781 49.410156 259.09375 C 48.855469 260.84375 48.152344 262.734375 46.949219 264.039062 C 45.121094 266.015625 43.414062 267.425781 44.996094 270.621094 C 45.589844 271.832031 44.246094 274.140625 43.523438 275.839844 C 41.246094 281.1875 38.5 286.359375 36.59375 291.820312 C 34.78125 297.03125 34.03125 302.59375 32.40625 307.882812 C 30.3125 314.65625 29.078125 321.820312 24.417969 327.597656 C 23.808594 328.355469 23.347656 329.628906 23.5 330.546875 C 24.8125 338.472656 19.566406 344.515625 17.542969 351.460938 C 15.523438 358.429688 12.769531 365.191406 10.121094 371.957031 C 8.109375 377.097656 5.753906 382.105469 3.171875 388.054688 C 1.992188 384.398438 1.027344 381.410156 -0.0390625 378.125 C 2.058594 372.398438 4.296875 366.277344 6.890625 360.257812 C 7.121094 362.992188 7.011719 365.621094 6.457031 368.492188 C 5.425781 370.523438 4.828125 372.296875 3.925781 375.027344 C 7.296875 372.777344 6.898438 370.429688 7.269531 367.804688 C 10.832031 358.011719 14.621094 348.773438 14.691406 338.449219 C 12.890625 342.753906 11.085938 347.054688 9.289062 351.359375 C 13.117188 332.320312 18.648438 313.769531 24.945312 295.417969 C 30.878906 278.109375 36.863281 260.804688 42.226562 243.3125 C 46.429688 229.597656 49.222656 215.460938 53.550781 201.792969 C 57.234375 190.167969 62.140625 178.925781 66.644531 167.574219 C 67.292969 165.9375 68.75 164.625 70.527344 163.304688 C 71.984375 163.9375 73.148438 165.019531 73.464844 164.8125 C 77.167969 162.371094 77.695312 159.160156 75.449219 153.929688 C 75.496094 153.351562 75.511719 153.011719 76.011719 152.796875 C 77.402344 152.757812 78.621094 152.917969 79.144531 152.394531 C 82.761719 148.765625 84.429688 144.257812 84.9375 138.726562 C 83.1875 138.578125 81.707031 138.457031 80.21875 138.339844 Z M 37.375 267.28125 C 37.566406 268.136719 37.765625 268.992188 38.375 271.6875 C 41.554688 264.84375 43.003906 259.507812 43.730469 253.46875 C 42.671875 253.976562 42.011719 254.085938 41.886719 254.402344 C 40.382812 258.328125 38.949219 262.296875 37.375 267.28125 Z M 33.4375 281.378906 C 32.105469 284.257812 30.636719 287.082031 29.503906 290.039062 C 29.179688 290.886719 29.789062 292.089844 30.089844 293.882812 C 34.480469 286.882812 35.167969 284.484375 34.601562 279.164062 C 34.316406 279.582031 34.039062 280.007812 33.4375 281.378906 Z M 96.242188 111.984375 C 96.035156 111.34375 95.816406 110.699219 95.394531 109.394531 C 92.878906 112.882812 90.742188 115.769531 91.394531 120.152344 C 95.039062 118.628906 94.699219 115.367188 96.242188 111.984375 Z M 65.726562 182.335938 C 65.09375 182.914062 64.445312 183.480469 63.882812 184.121094 C 63.84375 184.164062 64.460938 184.78125 64.777344 185.136719 C 65.21875 184.382812 65.664062 183.625 65.726562 182.335938 Z M 65.726562 182.335938 " fill-opacity="1" fill-rule="nonzero"/></g><path fill="#5f53cf" d="M 1290.4375 178.007812 C 1295.121094 166.894531 1304.585938 160.464844 1314.046875 154.046875 C 1316.753906 152.207031 1319.777344 151.582031 1324.332031 151.855469 C 1319.53125 154.957031 1315.519531 157.085938 1312.070312 159.910156 C 1308.605469 162.757812 1305.707031 166.300781 1301.71875 169.828125 C 1296.585938 171.253906 1294.550781 174.9375 1291.570312 177.984375 C 1290.890625 177.9375 1290.621094 177.921875 1290.351562 177.90625 C 1290.359375 177.90625 1290.414062 177.976562 1290.4375 178.007812 Z M 1290.4375 178.007812 " fill-opacity="1" fill-rule="nonzero"/><path fill="#5f53cf" d="M 623.898438 110.90625 C 626.257812 106.238281 628.324219 101.390625 630.964844 96.875 C 635.46875 89.1875 640.332031 81.710938 646.339844 74.949219 C 642.753906 80.886719 639.195312 86.835938 635.570312 92.746094 C 631.984375 98.597656 628.324219 104.398438 624.246094 110.527344 C 623.804688 110.828125 623.867188 110.875 623.898438 110.90625 Z M 623.898438 110.90625 " fill-opacity="1" fill-rule="nonzero"/><path fill="#5f53cf" d="M 1291.980469 178.015625 C 1294.550781 174.9375 1296.585938 171.261719 1301.269531 170.113281 C 1297.28125 176.410156 1292.898438 182.730469 1288.046875 189.28125 C 1287.582031 189.523438 1287.25 189.226562 1287.296875 188.574219 C 1288.886719 184.621094 1290.4375 181.316406 1291.980469 178.015625 Z M 1291.980469 178.015625 " fill-opacity="1" fill-rule="nonzero"/><path fill="#5f53cf" d="M 291.535156 26.65625 C 287.644531 31.910156 284.074219 36.757812 280.078125 42.175781 C 282.042969 35.007812 286.519531 29.003906 295.667969 21.996094 C 294.386719 23.40625 293.121094 24.828125 291.535156 26.65625 Z M 291.535156 26.65625 " fill-opacity="1" fill-rule="nonzero"/><path fill="#5f53cf" d="M 1119.03125 493.699219 C 1118.074219 495.386719 1117.265625 496.582031 1115.558594 499.117188 C 1114.511719 492.246094 1117.382812 488.667969 1120.40625 484.3125 C 1122.210938 488.242188 1119.71875 490.558594 1119.03125 493.699219 Z M 1119.03125 493.699219 " fill-opacity="1" fill-rule="nonzero"/><path fill="#5f53cf" d="M 203.5 42.949219 C 205.96875 39.320312 208.199219 36.125 210.429688 32.929688 C 210.738281 33.132812 211.046875 33.332031 211.355469 33.523438 C 208.46875 38.285156 205.585938 43.054688 202.699219 47.816406 C 202.398438 47.6875 202.097656 47.554688 201.796875 47.421875 C 202.273438 46.082031 202.769531 44.730469 203.5 42.949219 Z M 203.5 42.949219 " fill-opacity="1" fill-rule="nonzero"/><path fill="#5f53cf" d="M 548.742188 42.113281 C 550.894531 37.214844 554.441406 33.417969 558.59375 30.082031 C 556.28125 34.488281 554.382812 39.195312 549.1875 41.953125 C 548.640625 42.011719 548.710938 42.082031 548.742188 42.113281 Z M 548.742188 42.113281 " fill-opacity="1" fill-rule="nonzero"/><path fill="#5f53cf" d="M 657.421875 71.007812 C 659.550781 63.808594 659.582031 63.785156 666.855469 63.628906 C 663.976562 65.765625 661.03125 67.960938 657.699219 70.542969 C 657.3125 70.929688 657.390625 70.976562 657.421875 71.007812 Z M 657.421875 71.007812 " fill-opacity="1" fill-rule="nonzero"/><path fill="#5f53cf" d="M 75.457031 153.921875 C 75.164062 156.601562 74.675781 158.851562 71.105469 158.890625 C 72 155.574219 73.351562 152.339844 75 148.726562 C 75.355469 149.429688 75.402344 150.511719 75.488281 152.132812 C 75.519531 153.011719 75.496094 153.34375 75.457031 153.921875 Z M 75.457031 153.921875 " fill-opacity="1" fill-rule="nonzero"/><path fill="#5f53cf" d="M 471.171875 417.804688 C 469.710938 420.429688 468.457031 422.636719 467.191406 424.851562 C 466.804688 424.636719 466.417969 424.425781 466.03125 424.210938 C 467.777344 420.816406 469.511719 417.429688 471.257812 414.03125 C 471.585938 414.1875 471.917969 414.339844 472.25 414.496094 C 471.964844 415.460938 471.664062 416.433594 471.171875 417.804688 Z M 471.171875 417.804688 " fill-opacity="1" fill-rule="nonzero"/><path fill="#5f53cf" d="M 795.617188 53.976562 C 792.65625 57.292969 789.222656 60.734375 785.265625 64.378906 C 787.402344 60.289062 790.757812 56.683594 795.617188 53.976562 Z M 795.617188 53.976562 " fill-opacity="1" fill-rule="nonzero"/><path fill="#5f53cf" d="M 1225.71875 548.785156 C 1226.261719 547.703125 1226.617188 547.007812 1226.96875 546.304688 C 1227.226562 546.335938 1227.472656 546.375 1227.726562 546.40625 C 1227.285156 548.792969 1226.847656 551.175781 1226.40625 553.554688 C 1226.113281 553.523438 1225.828125 553.5 1225.535156 553.46875 C 1225.535156 552.039062 1225.535156 550.605469 1225.71875 548.785156 Z M 1225.71875 548.785156 " fill-opacity="1" fill-rule="nonzero"/><path fill="#5f53cf" d="M 1100.199219 99.691406 C 1100.675781 95.832031 1103.300781 93.257812 1106.21875 90.300781 C 1106.671875 90.023438 1106.601562 89.984375 1106.457031 90.507812 C 1104.589844 94.136719 1103.746094 97.871094 1100.121094 99.59375 C 1100.121094 99.59375 1100.175781 99.652344 1100.199219 99.691406 Z M 1100.199219 99.691406 " fill-opacity="1" fill-rule="nonzero"/><path fill="#5f53cf" d="M 1299.171875 180.414062 C 1300.167969 178.988281 1301.121094 177.84375 1302.566406 176.117188 C 1301.832031 179.417969 1301.832031 179.417969 1299.171875 180.414062 Z M 1299.171875 180.414062 " fill-opacity="1" fill-rule="nonzero"/><path fill="#5f53cf" d="M 438.425781 61.230469 C 439.613281 59.214844 440.855469 57.238281 442.097656 55.265625 C 442.414062 55.472656 442.730469 55.679688 443.039062 55.890625 C 441.8125 57.539062 440.585938 59.191406 438.96875 61.105469 C 438.566406 61.34375 438.472656 61.269531 438.425781 61.230469 Z M 438.425781 61.230469 " fill-opacity="1" fill-rule="nonzero"/><path fill="#5f53cf" d="M 976.152344 20.136719 C 975.203125 20.984375 974.320312 21.601562 973.441406 22.21875 C 973.273438 21.847656 973.109375 21.46875 972.941406 21.101562 C 974.035156 20.699219 975.125 20.296875 976.152344 20.136719 Z M 976.152344 20.136719 " fill-opacity="1" fill-rule="nonzero"/><path fill="#5f53cf" d="M 445.816406 478.417969 C 445.339844 479.542969 444.832031 480.355469 443.828125 481.976562 C 443.71875 479.527344 443.226562 477.953125 445.816406 478.417969 Z M 445.816406 478.417969 " fill-opacity="1" fill-rule="nonzero"/><path fill="#5f53cf" d="M 356.96875 72.535156 C 357.753906 70.519531 358.519531 68.476562 359.273438 66.429688 C 360.578125 69 359.011719 70.460938 357.300781 72.234375 C 356.867188 72.449219 356.929688 72.503906 356.96875 72.535156 Z M 356.96875 72.535156 " fill-opacity="1" fill-rule="nonzero"/><path fill="#5f53cf" d="M 1307.890625 344.011719 C 1307.734375 346.199219 1306.996094 347.910156 1303.144531 348.78125 C 1305.148438 346.753906 1306.207031 345.6875 1307.632812 344.359375 C 1308.003906 344.113281 1307.921875 344.050781 1307.890625 344.011719 Z M 1307.890625 344.011719 " fill-opacity="1" fill-rule="nonzero"/><path fill="#5f53cf" d="M 852.472656 126.894531 C 853.058594 122.914062 855.464844 119.902344 857.980469 116.097656 C 857.773438 120.976562 857.773438 120.976562 852.851562 126.59375 C 852.371094 126.8125 852.441406 126.863281 852.472656 126.894531 Z M 852.472656 126.894531 " fill-opacity="1" fill-rule="nonzero"/></g></g></g></svg>