<svg xmlns="http://www.w3.org/2000/svg" xmlns:xlink="http://www.w3.org/1999/xlink" width="1920" zoomAndPan="magnify" viewBox="0 0 1440 809.999993" height="1080" preserveAspectRatio="xMidYMid meet" version="1.0"><defs><clipPath id="33e4b74a2a"><path d="M 3.738281 108.1875 L 1436.238281 108.1875 L 1436.238281 643.6875 L 3.738281 643.6875 Z M 3.738281 108.1875 " clip-rule="nonzero"/></clipPath></defs><rect x="-144" width="1728" fill="#ffffff" y="-80.999999" height="971.999992" fill-opacity="1"/><rect x="-144" width="1728" fill="#ffffff" y="-80.999999" height="971.999992" fill-opacity="1"/><rect x="-144" width="1728" fill="#ffffff" y="-80.999999" height="971.999992" fill-opacity="1"/><g clip-path="url(#33e4b74a2a)"><path fill="#b1f5f4" d="M 1352.367188 113.039062 L 1358.382812 115.914062 L 1364.398438 118.785156 L 1353.582031 113.195312 L 1352.367188 113.039062 M 1317.914062 120.613281 L 1311.511719 121.015625 L 1305.105469 121.417969 L 1310.070312 122.078125 L 1313.75 121.84375 L 1318.242188 122.800781 L 1316.390625 122.914062 L 1322.636719 123.738281 L 1333.191406 125.988281 L 1329.308594 124.621094 L 1334.820312 125.351562 L 1325.976562 122.347656 L 1323.296875 122.507812 L 1317.914062 120.613281 M 1321.722656 125.816406 L 1317.847656 126.058594 L 1317.847656 126.0625 C 1319.820312 126.050781 1321.4375 126.042969 1322.691406 126.039062 L 1322.691406 126.042969 L 1321.722656 125.816406 M 1364.398438 118.785156 L 1368.640625 120.980469 L 1372.886719 123.175781 L 1377.835938 126.84375 L 1371.925781 122.382812 L 1364.398438 118.785156 M 1342.320312 127.894531 L 1342.59375 127.988281 L 1342.59375 127.992188 L 1342.402344 127.945312 C 1342.367188 127.925781 1342.34375 127.910156 1342.320312 127.894531 M 1329.140625 110.722656 L 1297.261719 112.324219 C 1269.363281 114.078125 1255.660156 114.949219 1256.152344 114.9375 L 1271.816406 117.011719 L 1299.285156 115.296875 L 1334.550781 114.226562 L 1348.542969 121.34375 L 1306.148438 118.445312 L 1290.195312 119.445312 L 1299.886719 120.726562 L 1309.605469 120.113281 L 1344.296875 121.527344 L 1354.621094 127.976562 L 1358.980469 128.546875 L 1352.925781 123.5625 L 1364.054688 129.222656 L 1379.109375 131.21875 L 1378.460938 130.386719 L 1329.140625 110.722656 M 1379.109375 131.214844 L 1379.984375 132.335938 L 1382.609375 135.703125 C 1382.054688 134.289062 1381.503906 132.871094 1380.953125 131.457031 C 1380.335938 131.375 1379.722656 131.292969 1379.109375 131.214844 M 1364.148438 132.800781 L 1366.964844 135.117188 L 1369.777344 137.433594 L 1366.167969 135.179688 L 1364.148438 132.800781 M 955.480469 135.738281 L 940.691406 136.914062 C 928.984375 137.832031 918.664062 138.675781 909.734375 139.441406 L 893.355469 140.183594 L 936.488281 136.5625 C 943.792969 136.234375 950.125 135.957031 955.480469 135.738281 M 920.660156 137.265625 L 915.890625 137.660156 C 896.597656 139.273438 884.949219 140.261719 880.945312 140.617188 L 879.074219 140.605469 L 849.800781 140.546875 L 849.800781 140.550781 L 874.582031 139.367188 L 909.949219 137.738281 L 920.660156 137.265625 M 902.769531 140.015625 L 894.96875 140.667969 L 894.96875 140.671875 L 889.265625 140.644531 L 889.265625 140.648438 L 891.636719 140.53125 L 902.769531 140.015625 M 1060.164062 131.5 L 1035.21875 133.359375 C 978.722656 137.683594 946.53125 140.195312 938.636719 140.894531 L 907.503906 140.714844 L 932.4375 138.652344 L 986.914062 136.203125 C 986.832031 136.132812 970.566406 136.792969 938.117188 138.191406 C 954.675781 136.835938 969.695312 135.625 983.171875 134.558594 C 1003.882812 133.6875 1029.542969 132.664062 1060.164062 131.5 M 1374.972656 140.675781 L 1375.464844 140.847656 L 1375.957031 141.023438 L 1376.230469 141.460938 L 1374.972656 140.675781 M 1167.273438 128.941406 L 1170.183594 129.007812 L 1173.097656 129.082031 C 1145.617188 130.992188 1119.257812 132.867188 1094.023438 134.710938 C 1074.46875 136.113281 1044.679688 138.371094 1004.664062 141.484375 C 994.238281 141.355469 988.429688 141.289062 987.238281 141.277344 C 984.503906 141.25 983.300781 141.242188 983.625 141.253906 C 1034.585938 137.207031 1088.648438 133.144531 1145.8125 129.070312 L 1167.273438 128.941406 M 1184.1875 129.339844 L 1193.839844 129.566406 C 1122.710938 134.433594 1066.429688 138.484375 1025 141.722656 L 1016.890625 141.625 L 1078.917969 136.855469 L 1090.941406 135.964844 C 1122.890625 133.613281 1153.972656 131.402344 1184.1875 129.339844 M 1206.304688 129.976562 L 1214.871094 130.542969 L 1223.433594 131.113281 C 1189.039062 133.390625 1157.660156 135.542969 1129.296875 137.566406 C 1097.644531 139.832031 1075.996094 141.414062 1064.355469 142.308594 L 1040.457031 141.933594 C 1095.914062 137.691406 1151.195312 133.703125 1206.304688 129.976562 M 837.585938 141.132812 L 845.195312 141.277344 L 863.257812 141.574219 L 863.257812 141.578125 C 863.21875 141.570312 856.390625 141.894531 842.777344 142.554688 C 840.554688 142.546875 836.59375 142.542969 830.898438 142.542969 C 824.070312 142.539062 816.789062 142.535156 809.054688 142.535156 L 809.054688 142.539062 L 837.585938 141.132812 M 868.132812 141.652344 L 868.671875 141.660156 L 865.003906 141.976562 L 858.292969 142.558594 L 858.292969 142.5625 L 852.65625 142.554688 L 849.289062 142.554688 L 849.289062 142.558594 L 868.132812 141.652344 M 891.417969 142.058594 L 892.449219 142.082031 C 896.777344 142.171875 899.722656 142.25 901.285156 142.3125 L 902.09375 142.351562 L 902.539062 142.386719 L 902.605469 142.421875 L 902.28125 142.449219 L 901.542969 142.476562 L 900.367188 142.5 C 899.703125 142.507812 899.160156 142.515625 898.738281 142.519531 L 896.640625 142.535156 L 894.039062 142.546875 L 890.929688 142.558594 C 888.3125 142.5625 886.480469 142.566406 885.421875 142.566406 L 885.421875 142.570312 C 887.074219 142.421875 889.070312 142.253906 891.417969 142.058594 M 874.542969 141.757812 L 875.832031 141.777344 L 880.628906 141.859375 L 880.636719 141.863281 L 872.113281 142.566406 L 872.113281 142.570312 L 865.195312 142.5625 L 865.195312 142.566406 L 871.683594 141.996094 L 874.542969 141.757812 M 1348.835938 132.023438 L 1371.71875 146.527344 L 1359.238281 135.144531 L 1353.222656 133.027344 L 1348.835938 132.023438 M 1231.449219 131.640625 L 1240.027344 132.207031 L 1276.316406 137.023438 L 1318.1875 149.496094 L 1320.183594 152.550781 L 1286.621094 149.828125 L 1251.699219 147.792969 L 1212.199219 146.054688 L 1171.019531 144.664062 L 1126.996094 143.507812 L 1077.550781 142.511719 C 1154.570312 136.867188 1205.871094 133.242188 1231.449219 131.640625 M 1369.070312 138.597656 L 1373.421875 143.730469 L 1377.777344 148.863281 L 1386.484375 159.125 L 1369.3125 138.683594 L 1369.070312 138.597656 M 130.996094 172.652344 L 126.039062 172.75 L 121.078125 172.847656 C 117.773438 172.910156 114.46875 172.972656 111.160156 173.039062 C 110.53125 173.425781 109.898438 173.8125 109.265625 174.199219 C 116.507812 173.683594 123.753906 173.167969 130.996094 172.652344 M 130.992188 179.210938 L 129.644531 179.601562 L 128.300781 180 L 120.785156 180.214844 L 120.785156 180.21875 L 122.660156 179.460938 L 130.992188 179.210938 M 1292.820312 179.363281 L 1299.144531 180.1875 L 1299.980469 180.613281 L 1296.582031 180.820312 L 1296.582031 180.824219 L 1292.820312 179.363281 M 1303.917969 182.589844 L 1313.074219 187.199219 L 1307.214844 184.929688 L 1303.820312 183.269531 L 1302.191406 182.992188 L 1301.535156 182.738281 L 1303.917969 182.589844 M 1399.488281 178.9375 L 1400.917969 182.605469 L 1402.351562 186.273438 L 1403.78125 189.9375 L 1405.214844 193.605469 L 1402.269531 183.417969 C 1401.34375 181.925781 1400.414062 180.429688 1399.488281 178.9375 M 73.617188 195.972656 L 56.378906 206.5 L 51.578125 215.863281 L 73.617188 195.972656 M 1287.523438 218.171875 L 1287.585938 218.175781 L 1287.765625 218.195312 L 1287.796875 218.210938 L 1287.796875 218.214844 C 1287.765625 218.210938 1287.675781 218.195312 1287.523438 218.171875 M 95.628906 190.808594 L 90.140625 192.492188 L 85.390625 194.390625 L 79.515625 198.542969 L 81.980469 195.757812 L 76.539062 197.941406 L 78.625 196.023438 L 74.742188 197.210938 L 73.457031 199.175781 L 69.183594 200.886719 L 63.878906 209.578125 L 70.824219 203.195312 L 59.019531 221.214844 L 60.527344 219.960938 L 61.578125 218.777344 L 61.191406 219.410156 L 76.96875 206.304688 L 85.011719 196.695312 L 92.816406 193.140625 L 95.628906 190.808594 M 1389.679688 153.8125 L 1392.023438 159.808594 L 1394.363281 165.808594 L 1398.664062 172.433594 L 1409.25 200.929688 L 1411.175781 208.875 L 1416.203125 221.753906 L 1407.890625 190.636719 L 1390.9375 154.84375 L 1389.679688 153.8125 M 61.191406 219.410156 L 60.859375 219.6875 L 60.527344 219.960938 L 59.878906 220.695312 L 58.347656 224.308594 L 59.0625 222.910156 L 61.191406 219.410156 M 1338.570312 200.027344 L 1341.527344 201.519531 L 1346.703125 214.671875 L 1350.460938 226.621094 L 1338.570312 200.027344 M 1279.558594 218.953125 L 1285.828125 222.253906 L 1294.074219 227.722656 L 1299.222656 231.878906 L 1301.4375 234.082031 L 1301.164062 234.039062 L 1279.558594 218.953125 M 51.578125 215.859375 L 47.953125 219.128906 L 40.289062 237.859375 L 51.578125 215.859375 M 1307.191406 229.855469 L 1310.320312 231.734375 L 1313.453125 233.613281 L 1315.925781 237.628906 L 1317.210938 240.160156 L 1307.191406 229.855469 M 1356.828125 240.40625 L 1358.328125 244.210938 L 1357.097656 241.464844 L 1356.828125 240.40625 M 49.328125 236.011719 L 48.65625 237.035156 L 46.207031 244.277344 L 49.328125 236.011719 M 40.289062 237.859375 L 39.347656 239.691406 L 38.410156 241.519531 L 37.078125 245.707031 L 40.289062 237.859375 M 1293.21875 248.367188 L 1293.425781 248.425781 L 1293.632812 248.488281 L 1293.746094 252.097656 L 1293.21875 248.367188 M 1382.609375 135.699219 L 1385.511719 143.140625 L 1404.820312 172.996094 L 1416.023438 205.355469 L 1422.734375 236.410156 L 1423.203125 239.6875 L 1428.40625 253.011719 L 1427.28125 244.785156 L 1424.175781 226.863281 L 1420.324219 209.449219 L 1414.058594 188.027344 L 1402.527344 161.226562 L 1382.609375 135.699219 M 1289.242188 254.660156 L 1289.351562 254.6875 L 1289.675781 254.765625 L 1289.523438 255.019531 L 1289.242188 254.660156 M 58.347656 224.308594 L 54.296875 232.238281 L 49.417969 243.613281 L 45.1875 255.402344 L 58.347656 224.308594 M 1264.257812 250.886719 L 1267.511719 251.117188 L 1275.847656 252.386719 L 1284.933594 257.699219 L 1285.628906 259.808594 L 1275.246094 257.246094 L 1264.257812 250.886719 M 82.394531 254.753906 L 80.867188 256.960938 L 79.34375 259.167969 L 76.039062 263.042969 L 80.644531 255.609375 L 82.394531 254.753906 M 1297.148438 264.84375 L 1297.605469 265.109375 L 1298.0625 265.378906 L 1298.191406 266.1875 L 1297.148438 264.84375 M 82.847656 265.78125 L 81.109375 267.609375 L 79.367188 269.441406 L 80.511719 267.03125 L 82.847656 265.78125 M 45.1875 255.40625 L 42.875 260.875 L 40.371094 270.996094 L 44.535156 257.226562 L 45.1875 255.40625 M 1428.40625 253.011719 L 1428.710938 255.238281 L 1429.621094 261.925781 L 1431.410156 278.925781 L 1429.847656 256.703125 L 1428.40625 253.011719 M 108.585938 280.292969 L 108.441406 280.65625 L 108.296875 281.023438 L 101.875 284.492188 L 102.128906 283.699219 L 108.585938 280.292969 M 59.042969 290.445312 L 58.90625 290.761719 L 58.484375 291.710938 C 58.570312 291.449219 58.65625 291.191406 58.742188 290.933594 C 58.84375 290.769531 58.945312 290.609375 59.042969 290.445312 M 1185.875 289.25 L 1187.574219 289.339844 L 1189.277344 289.429688 L 1215.855469 291.808594 L 1215.890625 291.863281 L 1185.875 289.25 M 100.359375 289.234375 L 101.121094 289.789062 L 101.878906 290.339844 L 99.496094 291.949219 L 100.359375 289.234375 M 1227.832031 292.882812 L 1228.507812 292.941406 L 1229.179688 293 L 1230.523438 293.121094 L 1230.53125 293.136719 L 1227.84375 292.898438 L 1227.832031 292.882812 M 1234.320312 293.460938 L 1234.425781 293.472656 L 1234.535156 293.480469 L 1234.746094 293.5 C 1234.574219 293.484375 1234.433594 293.472656 1234.320312 293.464844 L 1234.320312 293.46875 L 1234.320312 293.460938 M 1260.105469 293.773438 L 1260.660156 293.84375 L 1262.253906 294.578125 L 1260.105469 293.773438 M 97.90625 285.925781 L 98.089844 286.179688 L 98.277344 286.433594 L 78.570312 297.09375 L 80.566406 295.078125 L 97.90625 285.925781 M 40.371094 270.996094 L 40.203125 271.554688 L 40.03125 272.109375 L 35.609375 289.332031 L 33.832031 297.425781 L 40.371094 270.996094 M 123.691406 297.703125 L 123.074219 298.726562 L 122.460938 299.746094 L 122.460938 298.910156 L 123.691406 297.703125 M 123.921875 297.960938 L 122.460938 299.890625 L 122.460938 299.808594 L 122.585938 299.625 L 123.921875 297.960938 M 130.550781 299.988281 L 130.152344 300.402344 L 130.296875 300.054688 L 130.550781 299.988281 M 122.179688 300.210938 L 122.148438 300.269531 L 122.113281 300.324219 L 122.042969 300.441406 L 121.792969 300.773438 L 122.179688 300.210938 M 119.519531 302.226562 L 119.652344 302.300781 L 120.050781 302.515625 L 120.050781 302.519531 L 119.203125 302.914062 L 119.519531 302.226562 M 55.148438 301.699219 L 55.148438 301.863281 L 55.144531 302.359375 C 54.742188 303.351562 54.335938 304.347656 53.929688 305.34375 C 54.335938 304.128906 54.742188 302.914062 55.148438 301.699219 M 122.460938 303.828125 L 123.539062 304.417969 L 124.621094 305.003906 L 124.621094 305.007812 L 122.460938 305.648438 L 122.460938 303.828125 M 119.492188 303.8125 L 118.59375 304.996094 L 117.699219 306.179688 L 118.582031 304.265625 L 119.492188 303.8125 M 120.238281 303.441406 L 118.136719 306.933594 L 118.121094 306.9375 L 118.121094 306.941406 L 118.539062 306.105469 L 118.984375 305.261719 L 119.742188 303.929688 L 119.960938 303.578125 L 119.960938 303.582031 L 120.238281 303.441406 M 127.445312 306.542969 L 128.25 306.980469 L 129.050781 307.417969 L 129.050781 307.421875 L 125.804688 308.292969 L 125.804688 308.296875 L 126.707031 306.738281 L 126.707031 306.742188 L 127.445312 306.542969 M 124.945312 307.203125 L 124.464844 307.992188 L 123.984375 308.785156 L 122.460938 309.191406 L 122.460938 307.859375 L 124.945312 307.203125 M 1159.886719 309.117188 L 1167.714844 310.40625 L 1168.738281 312.796875 L 1159.882812 311.730469 L 1159.882812 311.734375 L 1159.886719 309.117188 M 95.136719 313.96875 L 95.09375 314.082031 L 95.046875 314.195312 C 94.835938 314.292969 94.625 314.390625 94.417969 314.488281 L 94.417969 314.492188 L 95.136719 313.96875 M 1170.335938 310.839844 L 1171.515625 311.03125 L 1172.695312 311.226562 L 1185.433594 315.429688 L 1180.5 315.121094 L 1171.992188 313.191406 L 1170.46875 313.011719 L 1170.335938 310.839844 M 1431.410156 278.925781 L 1432.730469 297.695312 L 1434.050781 316.46875 L 1433.320312 302.753906 L 1431.675781 281.433594 L 1431.410156 278.925781 M 111.882812 315.507812 L 110.652344 316.453125 L 109.421875 317.40625 L 110.089844 316.085938 L 110.089844 316.089844 L 111.882812 315.507812 M 132.261719 308.929688 L 132.703125 309.121094 L 129.609375 314.710938 L 129.601562 315.65625 L 122.527344 318.851562 L 122.484375 314.027344 L 123.867188 311.640625 L 132.261719 308.929688 M 93.96875 316.894531 L 93.511719 318.042969 L 93.050781 319.191406 L 93.4375 317.546875 L 93.96875 316.894531 M 66.082031 309.699219 L 56.210938 323.054688 L 57.128906 318.734375 L 66.082031 309.699219 M 110.070312 322.738281 L 109.773438 323.738281 L 109.476562 324.742188 L 109.21875 324.855469 L 109.21875 324.859375 L 109.363281 324.277344 L 110.070312 322.738281 M 108.953125 316.453125 L 108.425781 318.167969 L 99.28125 325.210938 L 99.421875 324.992188 L 106.792969 317.148438 L 108.953125 316.453125 M 1170.738281 317.460938 L 1172.011719 320.4375 L 1173.285156 323.410156 L 1174.5625 326.386719 L 1175.835938 329.359375 C 1174.367188 329.238281 1172.898438 329.117188 1171.429688 329 L 1170.738281 317.460938 M 108.378906 328.449219 L 108.050781 329.558594 C 108.121094 329.277344 108.207031 328.921875 108.316406 328.480469 L 108.378906 328.449219 M 54.679688 322.84375 L 52.839844 326.335938 L 51.003906 329.824219 L 50.929688 330.207031 L 53.839844 326.265625 L 54.679688 322.84375 M 129.582031 318.328125 L 129.542969 323.914062 L 129.5 329.5 L 122.644531 332.269531 L 122.542969 320.90625 L 124.945312 319.628906 L 129.582031 318.328125 M 1270.699219 316.433594 L 1271.074219 316.535156 L 1271.453125 316.640625 L 1279.433594 328.285156 L 1279.121094 334.609375 L 1270.699219 316.433594 M 53.394531 306.949219 L 48.496094 323.992188 L 45.425781 337.652344 L 45.058594 338.148438 L 49.070312 319.890625 L 53.394531 306.949219 M 129.476562 333.007812 L 129.464844 334.808594 L 122.753906 338.175781 L 122.71875 336.234375 L 126.019531 334.011719 L 129.476562 333.007812 M 55.277344 330.730469 L 55.296875 333.257812 L 55.316406 335.789062 L 52.492188 340.59375 L 54.398438 331.59375 L 55.277344 330.730469 M 129.453125 336.441406 L 129.429688 339.828125 L 122.835938 342.367188 L 122.796875 340.3125 L 129.453125 336.441406 M 49.355469 345.628906 L 49.328125 345.824219 L 49.296875 346.015625 L 49.171875 346.226562 C 49.246094 345.984375 49.308594 345.785156 49.355469 345.628906 M 55.15625 315.277344 L 55.199219 320.71875 L 54.679688 322.84375 L 55.207031 321.839844 L 55.226562 324.386719 L 53.839844 326.265625 L 50.832031 338.535156 L 47.617188 347.421875 L 50.929688 330.207031 L 50.492188 330.796875 L 51.003906 329.824219 L 51.941406 324.9375 L 55.15625 315.277344 M 129.375 347.152344 L 129.371094 347.523438 L 128.101562 348.046875 L 129.375 347.152344 M 42.28125 346.382812 L 42.039062 346.847656 L 41.796875 347.308594 L 41.625 348.070312 L 41.4375 349.5 L 42.28125 346.382812 M 124.351562 350.675781 L 123.015625 351.742188 L 123.011719 351.613281 L 124.351562 350.675781 M 129.355469 349.707031 L 129.347656 350.898438 L 129.339844 352.136719 L 123.101562 355.214844 L 123.039062 352.976562 L 129.355469 349.707031 M 1338.171875 322.082031 L 1339.25 325.019531 L 1339.28125 326.125 L 1339.246094 331.761719 L 1339.429688 333.84375 L 1340.050781 330.929688 L 1340.261719 328.847656 L 1340.601562 334.921875 L 1340.6875 343.019531 L 1338.921875 355.84375 L 1337.316406 347.597656 L 1336.527344 340.402344 L 1336.027344 333.957031 L 1337.472656 325.480469 L 1337.890625 323.257812 L 1338.171875 322.082031 M 241.527344 355.394531 L 240.839844 356.035156 L 238.078125 356.625 L 238.878906 355.96875 L 238.878906 355.972656 L 241.527344 355.394531 M 118.550781 355.296875 L 116.082031 357.261719 L 113.609375 359.230469 L 114.335938 357.703125 L 115.5625 356.839844 L 118.550781 355.296875 M 227.804688 358.390625 L 226.875 359.039062 L 224.730469 359.5 L 212.667969 362.273438 L 211.761719 362.492188 L 211.753906 362.203125 L 211.753906 362.207031 L 216.054688 361.128906 L 227.804688 358.390625 M 112.914062 358.210938 L 111.640625 360.796875 L 108.816406 363.050781 L 109.140625 361.316406 L 110.867188 359.269531 L 112.914062 358.210938 M 108.027344 362.636719 L 107.921875 363.238281 L 107.820312 363.847656 L 107.421875 364.160156 C 107.523438 363.773438 107.621094 363.386719 107.722656 363 C 107.824219 362.878906 107.925781 362.757812 108.027344 362.636719 M 44.683594 341.828125 L 43.273438 349.882812 L 41.863281 357.933594 L 40.664062 366.667969 L 40.332031 367.585938 L 41.21875 360.457031 L 43.980469 343.164062 L 44.683594 341.828125 M 55.15625 298.214844 L 55.15625 299.207031 L 53.335938 303.296875 L 46.015625 329.457031 L 43.914062 340.375 L 42.28125 346.382812 L 43.035156 344.957031 L 41.691406 351.941406 L 39.054688 371.121094 L 38.324219 373.140625 L 41.4375 349.5 L 37.273438 364.832031 L 41.398438 348.066406 L 41.796875 347.308594 L 49.441406 313.296875 L 55.15625 298.214844 M 69.90625 369.734375 L 66.507812 378.871094 L 67.128906 373.949219 L 69.90625 369.734375 M 1327.601562 398.515625 L 1327.394531 399.085938 L 1327.292969 399.367188 L 1327.1875 399.652344 C 1327.1875 399.648438 1327.1875 399.644531 1327.1875 399.640625 L 1327.1875 399.644531 L 1327.601562 398.515625 M 1326.808594 400.671875 L 1326.808594 400.683594 L 1326.8125 400.695312 L 1325.503906 404.316406 C 1325.5 404.308594 1325.496094 404.296875 1325.496094 404.285156 L 1325.488281 404.25 L 1326.808594 400.671875 M 1324.414062 407.164062 L 1324.417969 407.191406 L 1324.4375 407.261719 C 1324.421875 407.308594 1324.402344 407.363281 1324.375 407.433594 L 1324.128906 407.9375 L 1324.414062 407.164062 M 37.710938 383.902344 L 37.011719 390.925781 L 35.9375 405.8125 L 34.597656 417.714844 L 34.621094 416.914062 L 35.96875 398.128906 L 37.566406 384.378906 L 37.710938 383.902344 M 80.3125 395.492188 L 71.746094 419.625 L 72.929688 409.011719 L 73.980469 403 L 80.3125 395.492188 M 1331.460938 416.722656 L 1332.011719 418.105469 L 1333.664062 422.25 C 1333.554688 422.898438 1333.441406 423.542969 1333.332031 424.191406 L 1331.460938 416.722656 M 55.25 281.34375 L 55.195312 285.898438 L 55.191406 286.539062 L 50.035156 296.378906 L 40.09375 330.988281 L 34.183594 365.816406 L 32.277344 385.363281 L 28.851562 413.636719 L 27.378906 428.925781 L 27.824219 413.328125 L 31.597656 368.824219 L 39.84375 322.367188 L 55.25 281.34375 M 131.796875 433.160156 L 131.640625 434.089844 L 131.246094 433.46875 L 131.796875 433.160156 M 134.042969 431.90625 L 133.722656 432.839844 L 133.398438 433.773438 L 133.113281 436.410156 L 132.722656 435.796875 L 133.035156 432.867188 L 133.246094 432.351562 L 134.042969 431.90625 M 138.199219 433.089844 L 138.972656 437.308594 L 138.808594 439.289062 L 137.332031 440.476562 L 138.199219 433.089844 M 1290.695312 451.359375 L 1289.179688 453.191406 L 1287.664062 455.019531 L 1290.691406 452.550781 L 1290.691406 452.554688 L 1290.695312 451.359375 M 1316.804688 422.972656 L 1310.117188 436.699219 L 1290.691406 452.550781 L 1290.671875 458.917969 L 1284.085938 460.480469 L 1282.996094 460.660156 L 1287.664062 455.019531 L 1280.210938 461.101562 L 1276.707031 461.660156 L 1290.703125 448.15625 L 1290.695312 451.363281 L 1303.871094 435.449219 L 1312.167969 427.445312 L 1313.609375 427.183594 L 1313.378906 426.277344 L 1316.804688 422.972656 M 1290.667969 460.0625 L 1290.65625 465.191406 L 1278.632812 465.921875 L 1282.027344 461.824219 L 1290.667969 460.0625 M 1278.421875 462.558594 L 1276.191406 464.378906 L 1273.964844 466.199219 L 1271.875 466.320312 L 1275.0625 463.246094 L 1278.421875 462.558594 M 1400.765625 444.753906 L 1399.820312 450.09375 L 1398.957031 453.980469 L 1401.71875 479.125 L 1408.375 473.296875 L 1400.765625 444.753906 M 1386.199219 444.914062 L 1386.859375 446.476562 L 1387.519531 448.042969 L 1388.753906 464.359375 L 1371.785156 483.460938 L 1376.078125 471.984375 L 1384.433594 465.644531 L 1381.464844 457.582031 L 1386.199219 444.914062 M 1390.140625 482.671875 L 1389.367188 483.679688 L 1388.589844 484.6875 L 1388.125 486.832031 L 1390.363281 485.605469 L 1390.140625 482.671875 M 1365.011719 480.382812 L 1364.335938 480.894531 L 1363.65625 481.410156 L 1363.320312 487.300781 L 1365.011719 480.382812 M 1361.34375 483.167969 L 1358.878906 485.035156 L 1356.109375 491.816406 L 1356.105469 492.144531 L 1360.882812 490.789062 C 1361.039062 488.246094 1361.191406 485.707031 1361.34375 483.167969 M 1369.460938 459.179688 L 1369.296875 461.464844 L 1366.050781 476.148438 L 1365.015625 480.382812 L 1365.132812 480.289062 L 1363.226562 488.917969 L 1363.320312 487.300781 L 1362.585938 490.304688 L 1360.886719 490.785156 L 1360.730469 493.347656 L 1356.089844 499.007812 L 1356.105469 492.140625 L 1355.957031 492.183594 L 1356.105469 491.816406 L 1356.117188 487.132812 L 1358.878906 485.039062 L 1361.613281 478.359375 L 1361.34375 483.171875 L 1363.65625 481.410156 L 1364.167969 472.117188 L 1369.460938 459.179688 M 30.589844 405.019531 L 29.863281 420.242188 L 29.136719 435.460938 L 28.863281 460.949219 L 27.613281 484.847656 L 28.109375 504.207031 L 26.988281 499.535156 L 26.570312 457.082031 L 27.054688 440.160156 L 28.488281 424.246094 L 30.589844 405.019531 M 29.171875 490.757812 L 29.390625 500.601562 L 29.605469 510.445312 L 29.582031 510.351562 L 28.898438 503.976562 L 29.171875 490.757812 M 99.777344 508.484375 L 99.933594 511.445312 L 99.535156 510.636719 C 99.558594 510.085938 99.585938 509.378906 99.625 508.511719 L 99.625 508.515625 L 99.777344 508.484375 M 102.664062 507.96875 L 102.960938 509.777344 L 103.257812 511.582031 L 102.742188 511.640625 C 102.71875 510.6875 102.6875 509.464844 102.648438 507.976562 L 102.664062 507.96875 M 1371.71875 146.527344 L 1380.925781 154.925781 L 1393.070312 175.539062 L 1400.988281 195.757812 L 1405.644531 211.804688 C 1410.429688 230.082031 1414.359375 254.378906 1417.429688 284.695312 C 1418.605469 298.960938 1419.574219 314.644531 1420.339844 331.738281 L 1421.003906 355.847656 L 1421.226562 382.433594 C 1421.191406 400.242188 1420.882812 418.691406 1420.300781 437.78125 C 1420.019531 451.738281 1418.863281 476.609375 1416.835938 512.386719 L 1417.496094 508.902344 L 1417.953125 501.019531 C 1419.210938 477.894531 1420.019531 460.734375 1420.378906 449.542969 L 1421.449219 410.988281 L 1421.730469 383.558594 C 1421.679688 337.890625 1419.976562 300.136719 1416.621094 270.292969 C 1416.425781 266.984375 1414.839844 255.867188 1411.871094 236.945312 L 1406.234375 210.660156 L 1397 182.273438 L 1379.3125 151.339844 L 1371.71875 146.527344 M 30.019531 512.171875 L 30.378906 513.152344 L 30.738281 514.128906 L 30.808594 515.464844 L 30.019531 512.171875 M 1416.835938 512.386719 L 1416.429688 514.523438 L 1416.027344 516.65625 L 1416.707031 514.726562 L 1416.835938 512.386719 M 1359.046875 521.316406 L 1358.945312 522.996094 C 1358.417969 524.726562 1357.886719 526.457031 1357.359375 528.1875 L 1356.023438 528.273438 L 1356.035156 522.207031 L 1359.046875 521.316406 M 56.179688 372.285156 L 56.433594 379.117188 L 56.6875 385.945312 L 54.527344 400.96875 L 51.871094 423.722656 L 50.027344 442.324219 L 48.621094 460.089844 L 47.734375 475.507812 L 47.234375 492.914062 L 47.691406 515.605469 L 49.628906 532.652344 L 48.171875 531.636719 L 45.585938 514.277344 L 45.355469 479.429688 L 47.558594 442.746094 L 50.945312 408.84375 L 56.179688 372.285156 M 57.078125 395.082031 L 57.882812 409.027344 L 56.339844 422.304688 L 54.824219 436.957031 L 53.34375 454.140625 L 52.085938 474.597656 L 51.546875 494.917969 L 52.332031 519.886719 L 54.769531 536.238281 L 52.398438 534.589844 L 49.492188 509.601562 L 49.804688 473.625 L 52.648438 434.390625 L 57.078125 395.082031 M 48.339844 532.757812 L 49.785156 534.027344 L 50.265625 538.28125 L 49.039062 537.441406 L 48.339844 532.757812 M 1290.453125 537.15625 L 1290.449219 537.777344 C 1290.449219 537.984375 1290.449219 538.191406 1290.449219 538.398438 L 1286.285156 538.570312 L 1286.285156 538.574219 L 1290.453125 537.15625 M 69.175781 521.0625 L 70.765625 530.40625 L 72.351562 539.746094 L 74.4375 537.675781 L 71.253906 523.476562 L 69.175781 521.0625 M 58.5625 420.769531 L 58.699219 423.132812 L 59.441406 431.835938 L 56.792969 462.753906 L 55.671875 499.734375 L 58.78125 538.058594 L 61.195312 540.730469 L 58 538.492188 L 55.9375 533.367188 L 53.613281 495.554688 L 55.269531 454.953125 L 58.5625 420.769531 M 52.625 536.527344 L 53.882812 537.632812 L 55.140625 538.742188 L 55.613281 541.910156 L 53.046875 540.171875 L 52.625 536.527344 M 59.609375 433.84375 L 60.410156 443.222656 L 61.207031 452.601562 L 63.414062 470.550781 L 63.207031 473.972656 L 63.898438 490.789062 L 63.859375 492.011719 L 64.257812 513.601562 L 66.210938 533.207031 L 68.835938 543.238281 L 68.128906 544.015625 L 59.222656 537.894531 L 56.214844 487.417969 L 59.609375 433.84375 M 66.851562 494.039062 L 67.226562 496.089844 L 67.597656 498.140625 L 68.316406 510.386719 L 71.25 523.476562 L 73.632812 526.242188 L 76.371094 535.753906 L 74.4375 537.675781 L 74.449219 537.738281 L 77.785156 540.65625 L 78.773438 544.085938 L 72.5625 540.988281 L 72.351562 539.746094 L 71.878906 540.21875 L 67.886719 522.953125 L 67.757812 519.417969 L 69.175781 521.0625 L 67.457031 510.941406 L 66.851562 494.039062 M 59.714844 542.765625 L 66.386719 548.632812 L 66.207031 549.109375 L 60.785156 545.421875 L 59.714844 542.765625 M 1415.054688 533.410156 L 1413.460938 536.015625 L 1411.867188 538.617188 L 1409.847656 549.257812 L 1415.054688 533.410156 M 33.136719 543.46875 L 33.714844 548.851562 L 34.714844 549.488281 L 33.976562 546.394531 L 33.136719 543.46875 M 37.078125 245.707031 L 32.273438 257.449219 L 22.574219 294.097656 L 15.441406 330.621094 L 9.8125 367.527344 L 5.289062 404.296875 L 3.765625 447.867188 L 4.976562 485.539062 L 9.589844 527.78125 L 15.546875 551.894531 L 8.652344 516.480469 L 5.25 477.894531 L 4.445312 443.09375 L 6.070312 403.324219 L 10.09375 370.28125 L 14.933594 337.464844 L 20.753906 305.511719 L 28.121094 273.859375 L 37.078125 245.707031 M 1416.027344 516.65625 L 1412.871094 525.601562 L 1409.710938 534.542969 L 1403.398438 552.433594 L 1411.867188 538.617188 C 1413.253906 531.296875 1414.640625 523.976562 1416.027344 516.65625 M 1334.820312 125.351562 L 1336.667969 125.976562 L 1322.691406 126.039062 L 1348.835938 132.023438 L 1346.929688 130.816406 L 1369.070312 138.601562 L 1367.132812 136.316406 L 1377.855469 144.082031 L 1389.125 162.238281 L 1386.484375 159.125 C 1387.75 160.117188 1389.675781 162.839844 1392.265625 167.296875 L 1403.503906 193.097656 L 1410.777344 219.484375 L 1415.988281 247.523438 C 1419.015625 267.8125 1421.210938 290.695312 1422.570312 316.179688 C 1423.96875 345.003906 1424.375 375.910156 1423.785156 408.898438 C 1423.410156 437.765625 1421.820312 475.246094 1419.023438 521.335938 L 1415.054688 533.410156 L 1417.269531 529.800781 L 1410.40625 554.117188 L 1422.011719 524.273438 C 1424.175781 491.230469 1425.6875 458.527344 1426.550781 426.15625 C 1427.539062 378.695312 1427.285156 342.730469 1425.792969 318.257812 C 1424.398438 289.75 1421.957031 264.65625 1418.46875 242.972656 C 1417.148438 233.515625 1414.71875 222.148438 1411.175781 208.871094 L 1405.214844 193.605469 L 1413.761719 223.175781 L 1420.078125 261.625 L 1423.738281 300.5 L 1425.496094 335.972656 L 1426.167969 381.09375 C 1426.054688 404.226562 1425.742188 422.863281 1425.230469 437.003906 C 1424.410156 462.585938 1423.195312 488.421875 1421.582031 514.511719 L 1419.996094 520.140625 C 1422.152344 487.761719 1423.683594 453.550781 1424.59375 417.515625 C 1425.15625 389.054688 1425.183594 365.417969 1424.683594 346.605469 L 1423.335938 311.632812 L 1420.597656 275.855469 L 1416.191406 241.917969 L 1408.390625 205.378906 L 1396.765625 174.550781 L 1399.488281 178.9375 L 1394.363281 165.808594 L 1383 148.316406 L 1389.679688 153.8125 C 1386.835938 145.65625 1384.660156 140.757812 1383.148438 139.113281 L 1364.054688 129.21875 L 1358.980469 128.546875 L 1363.785156 132.5 L 1362.914062 132.632812 L 1354.621094 127.972656 L 1334.820312 125.351562 M 64.109375 553.683594 L 64.246094 553.816406 L 64.378906 553.949219 L 64.378906 553.957031 C 64.347656 554.039062 64.320312 554.109375 64.300781 554.164062 C 64.222656 553.96875 64.160156 553.808594 64.109375 553.683594 M 15.546875 551.894531 L 15.917969 553.808594 L 16.292969 555.722656 L 16.808594 557 L 15.546875 551.894531 M 1409.847656 549.257812 L 1408.082031 554.632812 L 1406.320312 560.003906 L 1407.972656 559.15625 L 1409.847656 549.257812 M 46.207031 244.277344 L 37.289062 267.914062 L 27.671875 307.964844 L 20.8125 346.914062 L 15.535156 385.328125 L 11.925781 428.296875 L 12.1875 467.828125 L 15.042969 507.992188 L 21.957031 548.058594 L 26.964844 561.636719 L 17.890625 524.320312 L 13.199219 477.148438 L 12.539062 428.054688 L 17.195312 376.9375 L 22.074219 342.742188 L 28.207031 308.332031 L 36.398438 273.300781 L 46.207031 244.277344 M 1416.203125 221.753906 L 1416.6875 223.570312 L 1422.128906 256.054688 L 1425.4375 287.183594 L 1427.355469 316.480469 L 1428.359375 344.246094 L 1428.695312 366.125 L 1428.707031 387.441406 L 1428.398438 411.015625 C 1427.71875 444.828125 1426.140625 481.058594 1423.664062 519.710938 L 1411.742188 559.074219 L 1414.425781 556.171875 L 1410.757812 562.339844 L 1409.550781 566.320312 L 1421.496094 556.226562 L 1422.859375 547.042969 L 1430.171875 539.132812 L 1432.332031 505.292969 L 1434.03125 473.078125 L 1435.300781 441.570312 L 1436.15625 408.234375 L 1436.417969 377 L 1436.007812 344.242188 L 1434.050781 316.46875 C 1434.242188 317.847656 1434.609375 327.585938 1435.15625 345.6875 L 1435.503906 370.304688 L 1435.460938 393.554688 L 1435.050781 418.929688 L 1434.234375 446.542969 L 1433.15625 472.613281 C 1432.085938 494.742188 1430.992188 513.941406 1429.878906 530.210938 L 1423.859375 540.324219 L 1427.652344 514.785156 C 1429.003906 492.324219 1429.941406 474.453125 1430.46875 461.179688 L 1431.464844 433.878906 L 1432.128906 405.789062 L 1432.355469 378.96875 L 1432.097656 350.792969 L 1431.214844 322.375 L 1429.621094 294.949219 L 1426.808594 264.945312 L 1423.203125 239.6875 L 1416.203125 221.753906 M 26.964844 561.632812 L 28.519531 568.023438 L 31.105469 572.851562 L 26.964844 561.632812 M 28.382812 544.875 L 28.398438 545 L 28.445312 545.363281 L 43.3125 582.867188 C 38.335938 570.203125 33.359375 557.539062 28.382812 544.875 M 16.808594 557 L 20.367188 571.402344 L 28.367188 585.59375 L 16.808594 557 M 1364.683594 586.078125 L 1354.414062 587.765625 L 1344.140625 589.449219 L 1358.285156 588.792969 L 1364.148438 586.320312 L 1364.148438 586.328125 L 1364.683594 586.078125 M 43.3125 582.867188 L 44.453125 585.761719 L 82.574219 590.910156 L 43.3125 582.867188 M 82.574219 590.910156 L 83.324219 591.0625 L 84.066406 591.214844 L 85.558594 591.519531 L 85.558594 591.523438 L 84.683594 591.191406 L 84.683594 591.195312 L 82.574219 590.910156 M 1403.398438 552.433594 L 1395.300781 565.636719 L 1368.929688 579.125 L 1390.941406 572.746094 L 1389.738281 574.714844 L 1402.75 568.8125 L 1400.839844 570.882812 L 1404.488281 569.339844 L 1403.761719 571.210938 L 1401.820312 572.851562 L 1403.421875 572.085938 L 1402.835938 573.597656 L 1399.164062 575.097656 L 1389.03125 583.660156 L 1380.53125 592.859375 L 1394.527344 589.609375 L 1405.566406 571.058594 L 1408.546875 569.632812 L 1409.550781 566.320312 L 1407.207031 568.300781 L 1410.757812 562.339844 L 1411.742188 559.078125 L 1407.808594 563.335938 L 1410.40625 554.117188 L 1406.109375 565.171875 L 1403.796875 567.683594 L 1406.316406 560.003906 L 1399.492188 563.5 L 1403.398438 552.433594 M 1379.140625 583.707031 L 1359.28125 593.210938 L 1339.023438 594.148438 L 1339.460938 592.890625 L 1357.558594 592.09375 L 1377.382812 583.996094 L 1379.140625 583.707031 M 104.152344 593.820312 L 104.441406 594.007812 L 105.308594 594.558594 L 106.59375 594.152344 L 106.59375 594.15625 L 104.152344 593.820312 M 31.105469 572.851562 L 32.757812 577.335938 L 37.722656 590.789062 C 39.496094 592.242188 41.269531 593.695312 43.042969 595.148438 C 39.0625 587.714844 35.085938 580.28125 31.105469 572.851562 M 33.832031 297.425781 L 30.132812 312.394531 L 20.25 374.121094 L 15.816406 411.71875 C 14.730469 433.929688 14.800781 456.851562 16.015625 480.472656 L 17.179688 496.796875 L 19.066406 514.238281 L 21.785156 531.722656 L 26.179688 551.601562 L 33.183594 573.28125 L 44.390625 595.9375 L 46.015625 597.582031 L 28.90625 559.480469 L 20.917969 523.839844 L 17.085938 489.824219 L 15.691406 459.894531 L 15.632812 430.285156 L 17.6875 399.03125 C 20.128906 378.207031 22.277344 361.921875 24.125 350.164062 C 26.976562 331.328125 30.210938 313.75 33.832031 297.425781 M 46.015625 597.582031 L 46.027344 597.605469 L 46.035156 597.625 L 46.214844 597.742188 L 46.015625 597.582031 M 28.367188 585.59375 L 29.691406 588.875 L 31.019531 592.15625 L 32.347656 595.433594 L 33.671875 598.714844 L 37.238281 601.328125 C 34.28125 596.082031 31.324219 590.835938 28.367188 585.59375 M 43.042969 595.148438 L 44.074219 597.070312 L 45.105469 598.996094 L 53.6875 606.945312 L 45.25 596.953125 L 43.042969 595.148438 M 101.605469 621.375 L 103.476562 621.566406 L 105.351562 621.761719 L 118.335938 622.652344 L 138.738281 623.910156 C 163.195312 625.328125 176.433594 626.082031 178.449219 626.164062 L 173.273438 624.230469 C 159.425781 623.613281 145.671875 623.007812 132.019531 622.425781 L 116.023438 621.765625 L 105.578125 621.402344 L 101.605469 621.375 M 249.15625 627.636719 L 258.335938 628.046875 L 268.429688 628.5 L 243.578125 629.582031 L 225.375 628.636719 L 225.375 628.640625 L 249.15625 627.636719 M 91.535156 627.585938 L 93.058594 628.589844 L 94.585938 629.59375 L 98.699219 629.78125 L 98.699219 629.785156 L 91.535156 627.585938 M 284.480469 629.203125 L 286.496094 629.289062 L 288.511719 629.378906 L 292.542969 629.554688 L 292.542969 629.5625 L 265.769531 630.703125 L 265.769531 630.707031 L 258.265625 630.324219 L 258.265625 630.328125 L 284.480469 629.203125 M 79.242188 630.628906 L 79.894531 631.230469 L 80.542969 631.835938 L 82.9375 632.0625 L 82.9375 632.066406 L 79.242188 630.628906 M 84.03125 635.585938 L 90.4375 640.277344 L 106.289062 641.128906 L 96.273438 637.238281 L 84.03125 635.585938 M 1319.789062 108.488281 L 1306.234375 109.308594 C 1227.515625 113.835938 1113.703125 121.949219 964.792969 133.644531 L 773.859375 142.546875 L 573.332031 144.128906 C 540.128906 146.726562 514.113281 151.222656 495.28125 157.617188 C 397.535156 157.699219 323.066406 158.988281 271.871094 161.484375 C 249.285156 162.570312 216.902344 165.722656 174.734375 170.9375 L 130.996094 172.652344 C 178.414062 170.128906 183.664062 171.167969 146.738281 175.765625 L 101.574219 178.894531 C 113.621094 174.230469 112.019531 172.960938 96.765625 175.085938 L 73.617188 195.972656 L 88.695312 186.761719 L 78.625 196.023438 C 82.933594 194.394531 84.050781 194.308594 81.980469 195.757812 L 96.824219 189.8125 C 92.894531 191.59375 94.859375 191.199219 102.71875 188.632812 C 86.753906 195.695312 71.769531 209.230469 57.773438 229.242188 L 55.300781 277.101562 C 42.734375 305.75 35.835938 325.246094 34.601562 335.589844 C 23.878906 412.492188 21.296875 480.953125 26.851562 540.976562 L 28.382812 544.875 C 25.484375 541.058594 24.355469 516.261719 24.996094 470.492188 L 27.238281 522.957031 L 33.136719 543.46875 L 33.015625 542.351562 L 39.746094 570.648438 C 43.316406 569.410156 45.566406 571.925781 46.5 578.191406 L 54.753906 579.445312 L 84.683594 591.191406 L 104.152344 593.820312 L 90.191406 584.910156 L 101.613281 588.136719 C 111.339844 592.644531 113 594.652344 106.59375 594.152344 L 116.175781 595.710938 L 112.199219 596.976562 L 85.558594 591.519531 L 173.273438 624.230469 L 243.078125 627.363281 C 238.242188 629.144531 216.699219 628.742188 178.449219 626.160156 C 223.101562 628.183594 228.097656 629.3125 193.445312 629.550781 C 137.214844 631.988281 105.632812 632.066406 98.699219 629.78125 L 126.53125 631.847656 L 221.351562 628.804688 L 239.992188 629.730469 C 157.964844 634.699219 110.417969 635.734375 97.347656 632.832031 L 80.976562 624.34375 L 91.535156 627.585938 L 46.214844 597.742188 L 74.746094 621.113281 C 62.773438 615.722656 55.753906 611 53.6875 606.949219 C 61.003906 614.203125 59.808594 614.664062 50.105469 608.339844 L 30.976562 577.714844 C 13.4375 533.980469 7.632812 473.273438 13.554688 395.59375 C 16.0625 363.65625 23.550781 321.660156 36.027344 269.613281 L 47.367188 236.648438 L 51.875 229.257812 L 48.816406 236.152344 C 48.742188 236.621094 49.070312 236.382812 49.800781 235.429688 L 59.019531 221.214844 L 54.484375 224.984375 L 63.878906 209.578125 C 30.808594 258.578125 12.207031 330.75 8.074219 426.097656 C 6.820312 464.515625 9.238281 501.300781 15.328125 536.453125 L 25.324219 573.523438 C 30.273438 585.511719 35.613281 595.78125 41.34375 604.332031 L 37.238281 601.328125 L 46.617188 617.964844 C 66.476562 624.550781 77.125 630.175781 78.566406 634.847656 L 84.03125 635.585938 L 75.023438 628.992188 L 79.242188 630.628906 L 68.242188 620.4375 C 72.039062 619.28125 78.851562 623.308594 88.679688 632.527344 L 129.632812 635.035156 L 262.6875 630.835938 C 178.890625 634.707031 134.257812 636.429688 128.785156 636 L 82.9375 632.0625 L 101.023438 638.296875 C 122.65625 639.265625 140.351562 639.464844 154.113281 638.886719 L 334.183594 631.371094 L 373.175781 633.015625 L 152.457031 642.238281 C 135.667969 642.914062 120.28125 642.542969 106.289062 641.128906 L 110.496094 642.761719 L 149.785156 643.105469 L 383.074219 633.425781 C 467.46875 637.800781 554.394531 639.632812 643.84375 638.921875 C 721.675781 636.789062 766.953125 635.410156 779.679688 634.785156 C 960.933594 623.269531 1130.941406 615.101562 1289.707031 610.285156 L 1320.132812 602.800781 L 1375.730469 598.054688 L 1380.53125 592.859375 L 1345.605469 600.96875 L 1324.425781 601.746094 L 1325.042969 601.015625 C 1328.464844 598.996094 1346.027344 596.386719 1377.742188 593.199219 L 1401.820312 572.851562 C 1395.445312 576.515625 1395.117188 575.859375 1400.839844 570.878906 L 1389.046875 575.839844 L 1389.738281 574.714844 L 1351.882812 591.484375 L 1339.6875 591.40625 C 1339.582031 590.082031 1341.066406 589.429688 1344.140625 589.449219 C 1340.597656 590.480469 1339.679688 589.800781 1341.394531 587.40625 L 1353.648438 586.9375 L 1368.929688 579.125 L 1341.527344 587.027344 C 1356.921875 547.253906 1361.753906 528.246094 1356.019531 529.996094 C 1359.097656 527.539062 1360.503906 529.191406 1360.226562 534.957031 C 1360.5625 522.839844 1361.3125 516.871094 1362.480469 517.050781 L 1382.90625 510.753906 L 1385.835938 497.324219 L 1402.460938 485.925781 L 1401.71875 479.125 L 1386.996094 492.007812 C 1388.84375 486.8125 1388.542969 485.460938 1386.09375 487.945312 L 1388.589844 484.691406 L 1389.855469 478.894531 C 1388.75 484.144531 1389.988281 483.914062 1393.574219 478.199219 L 1396.640625 466.46875 C 1399.757812 451 1400.496094 441.378906 1398.863281 437.605469 L 1400.765625 444.753906 L 1409.085938 388.222656 C 1411.78125 356.046875 1411.53125 327.574219 1408.34375 302.808594 L 1407.851562 300.542969 L 1408.097656 311.328125 L 1396.433594 255.039062 C 1388.601562 232.1875 1379.210938 211.296875 1368.269531 192.371094 C 1369.546875 189.511719 1359.234375 180.390625 1337.339844 165.003906 C 1333.210938 161.007812 1330.9375 157.734375 1330.511719 155.183594 L 1305.289062 142.328125 C 1301.199219 139.46875 1280.363281 135.652344 1242.773438 130.886719 L 1318.167969 125.722656 C 1315.886719 125.101562 1288.53125 126.613281 1236.097656 130.269531 L 1219.914062 129.0625 L 1316.390625 122.910156 L 1310.070312 122.070312 L 1201.519531 128.152344 L 1305.105469 121.414062 L 1299.886719 120.726562 L 1192.277344 127.757812 L 1170.039062 127.367188 L 1290.195312 119.441406 L 1271.8125 117.007812 C 1115.183594 128.136719 1033.8125 132.824219 1027.699219 131.078125 L 1256.152344 114.933594 L 1251.679688 114.339844 L 981.3125 132.949219 C 1121.070312 122.054688 1233.757812 114.007812 1319.367188 108.816406 L 1352.367188 113.039062 L 1349.285156 111.566406 L 1319.789062 108.488281 " fill-opacity="1" fill-rule="nonzero"/></g></svg>